<?xml version="1.0" encoding="UTF-8"?>
<svg id="_图层_1" data-name="图层 1" xmlns="http://www.w3.org/2000/svg" viewBox="0 0 882.98 151.59">
  <defs>
    <style>
      .cls-1 {
        letter-spacing: -.01em;
      }

      .cls-2 {
        letter-spacing: -.02em;
      }

      .cls-3 {
        letter-spacing: -.02em;
      }

      .cls-4 {
        letter-spacing: -.02em;
      }

      .cls-5 {
        letter-spacing: 0em;
      }

      .cls-6 {
        letter-spacing: -.02em;
      }

      .cls-7 {
        letter-spacing: -.02em;
      }

      .cls-8 {
        letter-spacing: 0em;
      }

      .cls-9 {
        letter-spacing: 0em;
      }

      .cls-10 {
        letter-spacing: -.03em;
      }

      .cls-11 {
        letter-spacing: -.05em;
      }

      .cls-12 {
        letter-spacing: 0em;
      }

      .cls-13 {
        letter-spacing: -.01em;
      }

      .cls-14 {
        letter-spacing: 0em;
      }

      .cls-15 {
        letter-spacing: -.03em;
      }

      .cls-16 {
        letter-spacing: -.02em;
      }

      .cls-17 {
        letter-spacing: -.02em;
      }

      .cls-18 {
        font-size: 10px;
      }

      .cls-18, .cls-19 {
        font-family: CircularSpotifyText-Medium, 'Circular Spotify Text';
        font-weight: 500;
      }

      .cls-18, .cls-19, .cls-20 {
        fill: #172a88;
      }

      .cls-21 {
        letter-spacing: -.02em;
      }

      .cls-22 {
        letter-spacing: -.02em;
      }

      .cls-23 {
        letter-spacing: 0em;
      }

      .cls-24 {
        letter-spacing: 0em;
      }

      .cls-25 {
        letter-spacing: 0em;
      }

      .cls-26 {
        letter-spacing: 0em;
      }

      .cls-27 {
        letter-spacing: 0em;
      }

      .cls-28 {
        letter-spacing: 0em;
      }

      .cls-29 {
        fill: none;
        stroke: #172a88;
        stroke-miterlimit: 10;
      }

      .cls-30 {
        letter-spacing: 0em;
      }

      .cls-19 {
        font-size: 14px;
      }

      .cls-31 {
        letter-spacing: -.02em;
      }

      .cls-20 {
        stroke-width: 0px;
      }

      .cls-32 {
        letter-spacing: 0em;
      }

      .cls-33 {
        letter-spacing: -.03em;
      }

      .cls-34 {
        letter-spacing: -.04em;
      }

      .cls-35 {
        letter-spacing: -.02em;
      }

      .cls-36 {
        letter-spacing: -.03em;
      }

      .cls-37 {
        letter-spacing: -.11em;
      }

      .cls-38 {
        letter-spacing: -.03em;
      }
    </style>
  </defs>
  <g>
    <path class="cls-29" d="m0,30.71h874.12"/>
    <polygon class="cls-20" points="872.14 33.62 882.98 30.71 872.14 27.81 872.14 33.62"/>
  </g>
  <text class="cls-19" transform="translate(18.44 11.96)"><tspan class="cls-26" x="0" y="0">M</tspan><tspan x="13.3" y="0">a</tspan><tspan class="cls-30" x="20.73" y="0">r</tspan><tspan x="25.91" y="0">ch 11, 2010</tspan></text>
  <text class="cls-18" transform="translate(21.63 58.25)"><tspan x="0" y="0">DO</tspan><tspan class="cls-38" x="15.4" y="0">L</tspan><tspan x="20.64" y="0" xml:space="preserve"> issues an Opinion </tspan><tspan class="cls-14" x="105.81" y="0">L</tspan><tspan class="cls-32" x="111.26" y="0">e</tspan><tspan x="116.78" y="0">t</tspan><tspan class="cls-24" x="120.43" y="0">t</tspan><tspan x="124.04" y="0">e</tspan><tspan class="cls-7" x="129.61" y="0">r</tspan><tspan x="133.18" y="0"> </tspan><tspan x="0" y="12">which i</tspan><tspan class="cls-32" x="32.78" y="12">n</tspan><tspan class="cls-24" x="38.45" y="12">t</tspan><tspan x="42.06" y="12">erp</tspan><tspan class="cls-25" x="57.46" y="12">r</tspan><tspan class="cls-32" x="61.16" y="12">e</tspan><tspan x="66.68" y="12">ts</tspan><tspan class="cls-21" x="74.98" y="12"> </tspan><tspan x="77.21" y="12">the N</tspan><tspan class="cls-10" x="102.3" y="12">Y</tspan><tspan x="108.5" y="12">SDO</tspan><tspan class="cls-38" x="129.92" y="12">L</tspan><tspan x="135.16" y="12"> </tspan><tspan class="cls-11" x="0" y="24">W</tspan><tspan class="cls-5" x="9.85" y="24">age O</tspan><tspan class="cls-27" x="37.19" y="24">r</tspan><tspan x="40.89" y="24">de</tspan><tspan class="cls-7" x="52.47" y="24">r</tspan></text>
  <text class="cls-19" transform="translate(196.01 11.96)"><tspan class="cls-26" x="0" y="0">M</tspan><tspan x="13.3" y="0">a</tspan><tspan class="cls-30" x="20.73" y="0">r</tspan><tspan x="25.91" y="0">ch 11, 2015</tspan></text>
  <text class="cls-18" transform="translate(199.2 58.25)"><tspan x="0" y="0">Lai</tspan><tspan class="cls-34" x="13.41" y="0"> </tspan><tspan class="cls-37" x="15.48" y="0">Y</tspan><tspan x="20.84" y="0">ee Chan and 2 </tspan><tspan class="cls-28" x="88.94" y="0">o</tspan><tspan x="94.73" y="0">the</tspan><tspan class="cls-2" x="109.67" y="0">r</tspan><tspan x="113.24" y="0" xml:space="preserve"> home </tspan><tspan class="cls-32" x="0" y="12">a</tspan><tspan x="5.26" y="12">t</tspan><tspan class="cls-24" x="8.91" y="12">t</tspan><tspan x="12.52" y="12">enda</tspan><tspan class="cls-32" x="35.13" y="12">n</tspan><tspan x="40.8" y="12">ts</tspan><tspan class="cls-4" x="49.1" y="12"> </tspan><tspan x="51.31" y="12">who</tspan><tspan class="cls-4" x="71.15" y="12"> </tspan><tspan class="cls-32" x="73.36" y="12">w</tspan><tspan x="81.56" y="12">or</tspan><tspan class="cls-36" x="91.2" y="12">k</tspan><tspan x="96.38" y="12">ed 24 </tspan><tspan x="0" y="24">hours shift</tspan><tspan class="cls-21" x="48.38" y="24"> </tspan><tspan class="cls-24" x="50.61" y="24">t</tspan><tspan x="54.22" y="24">o file a class action </tspan><tspan x="0" y="36">lawsuit against CPC</tspan></text>
  <text class="cls-19" transform="translate(369.15 11.96)"><tspan class="cls-1" x="0" y="0">N</tspan><tspan class="cls-35" x="10.68" y="0">o</tspan><tspan class="cls-17" x="18.66" y="0">v</tspan><tspan x="25.98" y="0">embe</tspan><tspan class="cls-6" x="62.24" y="0">r</tspan><tspan x="67.24" y="0" xml:space="preserve"> 2015</tspan></text>
  <g>
    <path class="cls-20" d="m376.01,52.29v5.96h-1.2v-5.96h-2.3v-1.13h5.81v1.13h-2.31Z"/>
    <path class="cls-20" d="m380.37,58.25h-1.16v-7.24h1.16v2.84c.33-.43.88-.61,1.39-.61,1.2,0,1.78.86,1.78,1.93v3.08h-1.16v-2.88c0-.6-.27-1.08-1-1.08-.64,0-.99.48-1.01,1.1v2.86Z"/>
    <path class="cls-20" d="m389.31,56.86c-.26.85-1.03,1.54-2.2,1.54-1.32,0-2.49-.96-2.49-2.61,0-1.54,1.14-2.56,2.37-2.56,1.5,0,2.38.99,2.38,2.53,0,.19-.02.35-.03.37h-3.56c.03.74.61,1.27,1.33,1.27s1.06-.37,1.22-.85l.98.31Zm-1.11-1.58c-.02-.57-.4-1.08-1.2-1.08-.73,0-1.15.56-1.19,1.08h2.39Z"/>
    <path class="cls-20" d="m394.08,58.25h-1.16v-7.24h1.16v2.84c.33-.43.88-.61,1.39-.61,1.2,0,1.78.86,1.78,1.93v3.08h-1.16v-2.88c0-.6-.27-1.08-1-1.08-.64,0-.99.48-1.01,1.1v2.86Z"/>
    <path class="cls-20" d="m403.38,55.81c0,1.5-1.07,2.59-2.53,2.59s-2.52-1.09-2.52-2.59,1.07-2.58,2.52-2.58,2.53,1.09,2.53,2.58Zm-1.17,0c0-1.01-.64-1.53-1.36-1.53s-1.36.52-1.36,1.53.65,1.55,1.36,1.55,1.36-.53,1.36-1.55Z"/>
    <path class="cls-20" d="m404.51,58.25v-4.87h1.11v.62c.28-.5.89-.76,1.44-.76.64,0,1.2.29,1.46.86.38-.64.95-.86,1.58-.86.88,0,1.72.56,1.72,1.85v3.16h-1.12v-2.97c0-.57-.29-1-.94-1-.61,0-1.01.48-1.01,1.08v2.89h-1.14v-2.97c0-.56-.28-1-.94-1-.62,0-1.01.46-1.01,1.08v2.89h-1.15Z"/>
    <path class="cls-20" d="m417.59,56.86c-.26.85-1.03,1.54-2.2,1.54-1.32,0-2.49-.96-2.49-2.61,0-1.54,1.14-2.56,2.37-2.56,1.5,0,2.38.99,2.38,2.53,0,.19-.02.35-.03.37h-3.56c.03.74.61,1.27,1.33,1.27s1.06-.37,1.22-.85l.98.31Zm-1.11-1.58c-.02-.57-.4-1.08-1.2-1.08-.73,0-1.15.56-1.19,1.08h2.39Z"/>
    <path class="cls-20" d="m422.36,55.46l1.25-.19c.28-.04.36-.18.36-.35,0-.41-.28-.74-.92-.74s-.95.39-1,.88l-1.06-.24c.09-.84.85-1.59,2.05-1.59,1.5,0,2.07.85,2.07,1.82v2.42c0,.44.05.73.06.78h-1.08s-.05-.23-.05-.62c-.23.37-.71.77-1.5.77-1.02,0-1.65-.7-1.65-1.47,0-.87.64-1.35,1.47-1.47Zm1.61.77v-.22l-1.27.19c-.36.06-.65.26-.65.66,0,.33.25.63.71.63.65,0,1.21-.31,1.21-1.26Z"/>
    <path class="cls-20" d="m427.99,53.38h1.01v1.03h-1.01v2.26c0,.43.19.61.62.61.16,0,.35-.03.4-.04v.96c-.07.03-.29.11-.71.11-.9,0-1.46-.54-1.46-1.45v-2.45h-.9v-1.03h.25c.52,0,.75-.33.75-.76v-.73h1.05v1.49Z"/>
    <path class="cls-20" d="m431.64,53.38h1.01v1.03h-1.01v2.26c0,.43.19.61.62.61.16,0,.35-.03.4-.04v.96c-.07.03-.29.11-.71.11-.9,0-1.46-.54-1.46-1.45v-2.45h-.9v-1.03h.25c.52,0,.75-.33.75-.76v-.73h1.05v1.49Z"/>
    <path class="cls-20" d="m438.1,56.86c-.26.85-1.03,1.54-2.2,1.54-1.32,0-2.49-.96-2.49-2.61,0-1.54,1.14-2.56,2.37-2.56,1.5,0,2.38.99,2.38,2.53,0,.19-.02.35-.03.37h-3.56c.03.74.61,1.27,1.33,1.27s1.06-.37,1.22-.85l.98.31Zm-1.11-1.58c-.02-.57-.4-1.08-1.2-1.08-.73,0-1.15.56-1.19,1.08h2.39Z"/>
    <path class="cls-20" d="m440.45,58.25h-1.16v-4.87h1.13v.65c.32-.56.9-.79,1.44-.79,1.19,0,1.76.86,1.76,1.93v3.08h-1.16v-2.88c0-.6-.27-1.08-1-1.08-.66,0-1.01.51-1.01,1.15v2.81Z"/>
    <path class="cls-20" d="m449.58,57.36c0,.44.04.81.05.89h-1.11c-.02-.11-.05-.43-.05-.63-.23.41-.74.75-1.43.75-1.4,0-2.34-1.1-2.34-2.57s.95-2.55,2.32-2.55c.85,0,1.28.39,1.43.7v-2.94h1.13v6.35Zm-2.41,0c.76,0,1.29-.63,1.29-1.56s-.52-1.51-1.28-1.51-1.32.59-1.32,1.52.52,1.55,1.31,1.55Z"/>
    <path class="cls-20" d="m452.18,55.46l1.25-.19c.28-.04.36-.18.36-.35,0-.41-.28-.74-.92-.74s-.95.39-1,.88l-1.06-.24c.09-.84.85-1.59,2.05-1.59,1.5,0,2.07.85,2.07,1.82v2.42c0,.44.05.73.06.78h-1.08s-.05-.23-.05-.62c-.23.37-.71.77-1.5.77-1.02,0-1.65-.7-1.65-1.47,0-.87.64-1.35,1.47-1.47Zm1.61.77v-.22l-1.27.19c-.36.06-.65.26-.65.66,0,.33.25.63.71.63.65,0,1.21-.31,1.21-1.26Z"/>
    <path class="cls-20" d="m457.49,58.25h-1.16v-4.87h1.13v.65c.32-.56.9-.79,1.44-.79,1.19,0,1.76.86,1.76,1.93v3.08h-1.16v-2.88c0-.6-.27-1.08-1-1.08-.66,0-1.01.51-1.01,1.15v2.81Z"/>
    <path class="cls-20" d="m463.53,53.38h1.01v1.03h-1.01v2.26c0,.43.19.61.62.61.16,0,.35-.03.4-.04v.96c-.07.03-.29.11-.71.11-.9,0-1.46-.54-1.46-1.45v-2.45h-.9v-1.03h.25c.52,0,.75-.33.75-.76v-.73h1.05v1.49Z"/>
    <path class="cls-20" d="m468.07,60.15v-6.77h1.12v.66c.24-.42.8-.77,1.55-.77,1.44,0,2.25,1.1,2.25,2.54s-.89,2.56-2.29,2.56c-.7,0-1.23-.3-1.48-.67v2.45h-1.15Zm2.45-5.85c-.76,0-1.31.6-1.31,1.51s.55,1.53,1.31,1.53,1.31-.6,1.31-1.53-.53-1.51-1.31-1.51Z"/>
    <path class="cls-20" d="m474.13,58.25v-7.24h1.16v7.24h-1.16Z"/>
    <path class="cls-20" d="m477.89,55.46l1.25-.19c.28-.04.36-.18.36-.35,0-.41-.28-.74-.92-.74s-.95.39-1,.88l-1.06-.24c.09-.84.85-1.59,2.05-1.59,1.5,0,2.07.85,2.07,1.82v2.42c0,.44.05.73.06.78h-1.08s-.05-.23-.05-.62c-.23.37-.71.77-1.5.77-1.02,0-1.65-.7-1.65-1.47,0-.87.64-1.35,1.47-1.47Zm1.61.77v-.22l-1.27.19c-.36.06-.65.26-.65.66,0,.33.25.63.71.63.65,0,1.21-.31,1.21-1.26Z"/>
    <path class="cls-20" d="m482.61,50.91c.42,0,.76.34.76.76s-.34.75-.76.75-.75-.33-.75-.75.34-.76.75-.76Zm-.57,7.34v-4.87h1.15v4.87h-1.15Z"/>
    <path class="cls-20" d="m485.79,58.25h-1.16v-4.87h1.13v.65c.32-.56.9-.79,1.44-.79,1.19,0,1.76.86,1.76,1.93v3.08h-1.16v-2.88c0-.6-.27-1.08-1-1.08-.66,0-1.01.51-1.01,1.15v2.81Z"/>
    <path class="cls-20" d="m491.83,53.38h1.01v1.03h-1.01v2.26c0,.43.19.61.62.61.16,0,.35-.03.4-.04v.96c-.07.03-.29.11-.71.11-.9,0-1.46-.54-1.46-1.45v-2.45h-.9v-1.03h.25c.52,0,.75-.33.75-.76v-.73h1.05v1.49Z"/>
    <path class="cls-20" d="m494.52,50.91c.42,0,.76.34.76.76s-.34.75-.76.75-.75-.33-.75-.75.34-.76.75-.76Zm-.57,7.34v-4.87h1.15v4.87h-1.15Z"/>
    <path class="cls-20" d="m501.32,52.74v.64h1.13v1.01h-1.13v3.86h-1.17v-3.86h-2.03v3.86h-1.17v-3.86h-.85v-1.01h.85v-.67c0-1.09.7-1.75,1.7-1.75.29,0,.53.06.61.1v.99c-.07-.02-.2-.05-.42-.05-.3,0-.72.14-.72.74v.64h2.03v-.67c0-1.09.7-1.75,1.7-1.75.29,0,.53.06.61.1v.99c-.07-.02-.2-.05-.42-.05-.3,0-.72.14-.72.74Z"/>
    <path class="cls-20" d="m504.04,56.65c.04.44.37.83.99.83.48,0,.73-.26.73-.56,0-.26-.18-.46-.57-.54l-.72-.16c-.86-.19-1.31-.75-1.31-1.42,0-.85.78-1.57,1.79-1.57,1.36,0,1.8.88,1.88,1.36l-.98.28c-.04-.28-.25-.73-.9-.73-.41,0-.7.26-.7.56,0,.26.19.45.49.51l.74.15c.92.2,1.4.76,1.4,1.48s-.6,1.56-1.84,1.56c-1.41,0-1.95-.92-2.01-1.47l1.01-.28Z"/>
    <path class="cls-20" d="m374.22,67.46l1.25-.19c.28-.04.36-.18.36-.35,0-.41-.28-.74-.92-.74s-.95.39-1,.88l-1.06-.24c.09-.84.85-1.59,2.05-1.59,1.5,0,2.07.85,2.07,1.82v2.42c0,.44.05.73.06.78h-1.08s-.05-.23-.05-.62c-.23.37-.71.77-1.5.77-1.02,0-1.65-.7-1.65-1.47,0-.87.64-1.35,1.47-1.47Zm1.61.77v-.22l-1.27.19c-.36.06-.65.26-.65.66,0,.33.25.63.71.63.65,0,1.21-.31,1.21-1.26Z"/>
    <path class="cls-20" d="m378.37,70.25v-4.87h1.11v.62c.28-.5.89-.76,1.44-.76.64,0,1.2.29,1.46.86.38-.64.95-.86,1.58-.86.88,0,1.72.56,1.72,1.85v3.16h-1.12v-2.97c0-.57-.29-1-.94-1-.61,0-1.01.48-1.01,1.08v2.89h-1.14v-2.97c0-.56-.28-1-.94-1-.62,0-1.01.46-1.01,1.08v2.89h-1.15Z"/>
    <path class="cls-20" d="m391.45,68.86c-.26.85-1.03,1.54-2.2,1.54-1.32,0-2.49-.96-2.49-2.61,0-1.54,1.14-2.56,2.37-2.56,1.5,0,2.38.99,2.38,2.53,0,.19-.02.35-.03.37h-3.56c.03.74.61,1.27,1.33,1.27s1.06-.37,1.22-.85l.98.31Zm-1.11-1.58c-.02-.57-.4-1.08-1.2-1.08-.73,0-1.15.56-1.19,1.08h2.39Z"/>
    <path class="cls-20" d="m393.8,70.25h-1.16v-4.87h1.13v.65c.32-.56.9-.79,1.44-.79,1.19,0,1.76.86,1.76,1.93v3.08h-1.16v-2.88c0-.6-.27-1.08-1-1.08-.66,0-1.01.51-1.01,1.15v2.81Z"/>
    <path class="cls-20" d="m402.93,69.36c0,.44.04.81.05.89h-1.11c-.02-.11-.05-.43-.05-.63-.23.41-.74.75-1.43.75-1.4,0-2.34-1.1-2.34-2.57s.95-2.55,2.32-2.55c.85,0,1.28.39,1.43.7v-2.94h1.13v6.35Zm-2.41,0c.76,0,1.29-.63,1.29-1.56s-.52-1.51-1.28-1.51-1.32.59-1.32,1.52.52,1.55,1.31,1.55Z"/>
    <path class="cls-20" d="m408.13,65.38h1.01v1.03h-1.01v2.26c0,.43.19.61.62.61.16,0,.35-.03.4-.04v.96c-.07.03-.29.11-.71.11-.9,0-1.46-.54-1.46-1.45v-2.45h-.9v-1.03h.25c.52,0,.75-.33.75-.76v-.73h1.05v1.49Z"/>
    <path class="cls-20" d="m411.41,70.25h-1.16v-7.24h1.16v2.84c.33-.43.88-.61,1.39-.61,1.2,0,1.78.86,1.78,1.93v3.08h-1.16v-2.88c0-.6-.27-1.08-1-1.08-.64,0-.99.48-1.01,1.1v2.86Z"/>
    <path class="cls-20" d="m420.35,68.86c-.26.85-1.03,1.54-2.2,1.54-1.32,0-2.49-.96-2.49-2.61,0-1.54,1.14-2.56,2.37-2.56,1.5,0,2.38.99,2.38,2.53,0,.19-.02.35-.03.37h-3.56c.03.74.61,1.27,1.33,1.27s1.06-.37,1.22-.85l.98.31Zm-1.11-1.58c-.02-.57-.4-1.08-1.2-1.08-.73,0-1.15.56-1.19,1.08h2.39Z"/>
    <path class="cls-20" d="m424.81,67.81c0,.98.63,1.53,1.36,1.53s1.11-.53,1.22-.9l1.02.37c-.23.76-.96,1.59-2.24,1.59-1.43,0-2.52-1.11-2.52-2.59s1.09-2.58,2.49-2.58c1.31,0,2.03.82,2.23,1.6l-1.04.38c-.11-.43-.44-.91-1.18-.91s-1.34.53-1.34,1.51Z"/>
    <path class="cls-20" d="m429.45,70.25v-7.24h1.16v7.24h-1.16Z"/>
    <path class="cls-20" d="m433.21,67.46l1.25-.19c.28-.04.36-.18.36-.35,0-.41-.28-.74-.92-.74s-.95.39-1,.88l-1.06-.24c.09-.84.85-1.59,2.05-1.59,1.5,0,2.07.85,2.07,1.82v2.42c0,.44.05.73.06.78h-1.08s-.05-.23-.05-.62c-.23.37-.71.77-1.5.77-1.02,0-1.65-.7-1.65-1.47,0-.87.64-1.35,1.47-1.47Zm1.61.77v-.22l-1.27.19c-.36.06-.65.26-.65.66,0,.33.25.63.71.63.65,0,1.21-.31,1.21-1.26Z"/>
    <path class="cls-20" d="m438.03,68.65c.04.44.37.83.99.83.48,0,.73-.26.73-.56,0-.26-.18-.46-.57-.54l-.72-.16c-.86-.19-1.31-.75-1.31-1.42,0-.85.78-1.57,1.79-1.57,1.36,0,1.8.88,1.88,1.36l-.98.28c-.04-.28-.25-.73-.9-.73-.41,0-.7.26-.7.56,0,.26.19.45.49.51l.74.15c.92.2,1.4.76,1.4,1.48s-.6,1.56-1.84,1.56c-1.41,0-1.95-.92-2.01-1.47l1.01-.28Z"/>
    <path class="cls-20" d="m442.68,68.65c.04.44.37.83.99.83.48,0,.73-.26.73-.56,0-.26-.18-.46-.57-.54l-.72-.16c-.86-.19-1.31-.75-1.31-1.42,0-.85.78-1.57,1.79-1.57,1.36,0,1.8.88,1.88,1.36l-.98.28c-.04-.28-.25-.73-.9-.73-.41,0-.7.26-.7.56,0,.26.19.45.49.51l.74.15c.92.2,1.4.76,1.4,1.48s-.6,1.56-1.84,1.56c-1.41,0-1.95-.92-2.01-1.47l1.01-.28Z"/>
    <path class="cls-20" d="m450.24,67.46l1.25-.19c.28-.04.36-.18.36-.35,0-.41-.28-.74-.92-.74s-.95.39-1,.88l-1.06-.24c.09-.84.85-1.59,2.05-1.59,1.5,0,2.07.85,2.07,1.82v2.42c0,.44.05.73.06.78h-1.08s-.05-.23-.05-.62c-.23.37-.71.77-1.5.77-1.02,0-1.65-.7-1.65-1.47,0-.87.64-1.35,1.47-1.47Zm1.61.77v-.22l-1.27.19c-.36.06-.65.26-.65.66,0,.33.25.63.71.63.65,0,1.21-.31,1.21-1.26Z"/>
    <path class="cls-20" d="m455.24,67.81c0,.98.63,1.53,1.36,1.53s1.11-.53,1.22-.9l1.02.37c-.23.76-.96,1.59-2.24,1.59-1.43,0-2.52-1.11-2.52-2.59s1.09-2.58,2.49-2.58c1.31,0,2.03.82,2.23,1.6l-1.04.38c-.11-.43-.44-.91-1.18-.91s-1.34.53-1.34,1.51Z"/>
    <path class="cls-20" d="m461.41,65.38h1.01v1.03h-1.01v2.26c0,.43.19.61.62.61.16,0,.35-.03.4-.04v.96c-.07.03-.29.11-.71.11-.9,0-1.46-.54-1.46-1.45v-2.45h-.9v-1.03h.25c.52,0,.75-.33.75-.76v-.73h1.05v1.49Z"/>
    <path class="cls-20" d="m464.1,62.91c.42,0,.76.34.76.76s-.34.75-.76.75-.75-.33-.75-.75.34-.76.75-.76Zm-.57,7.34v-4.87h1.15v4.87h-1.15Z"/>
    <path class="cls-20" d="m470.86,67.81c0,1.5-1.07,2.59-2.53,2.59s-2.52-1.09-2.52-2.59,1.07-2.58,2.52-2.58,2.53,1.09,2.53,2.58Zm-1.17,0c0-1.01-.64-1.53-1.36-1.53s-1.36.52-1.36,1.53.65,1.55,1.36,1.55,1.36-.53,1.36-1.55Z"/>
    <path class="cls-20" d="m473.15,70.25h-1.16v-4.87h1.13v.65c.32-.56.9-.79,1.44-.79,1.19,0,1.76.86,1.76,1.93v3.08h-1.16v-2.88c0-.6-.27-1.08-1-1.08-.66,0-1.01.51-1.01,1.15v2.81Z"/>
    <path class="cls-20" d="m480.98,67.81c0,.98.63,1.53,1.36,1.53s1.11-.53,1.22-.9l1.02.37c-.23.76-.96,1.59-2.24,1.59-1.43,0-2.52-1.11-2.52-2.59s1.09-2.58,2.49-2.58c1.31,0,2.03.82,2.23,1.6l-1.04.38c-.11-.43-.44-.91-1.18-.91s-1.34.53-1.34,1.51Z"/>
    <path class="cls-20" d="m490.35,67.81c0,1.5-1.07,2.59-2.53,2.59s-2.52-1.09-2.52-2.59,1.07-2.58,2.52-2.58,2.53,1.09,2.53,2.58Zm-1.17,0c0-1.01-.64-1.53-1.36-1.53s-1.36.52-1.36,1.53.65,1.55,1.36,1.55,1.36-.53,1.36-1.55Z"/>
    <path class="cls-20" d="m491.49,70.25v-4.87h1.11v.62c.28-.5.89-.76,1.44-.76.64,0,1.2.29,1.46.86.38-.64.95-.86,1.58-.86.88,0,1.72.56,1.72,1.85v3.16h-1.12v-2.97c0-.57-.29-1-.94-1-.61,0-1.01.48-1.01,1.08v2.89h-1.14v-2.97c0-.56-.28-1-.94-1-.62,0-1.01.46-1.01,1.08v2.89h-1.15Z"/>
    <path class="cls-20" d="m500.11,67.84v-1.03h2.82v1.03h-2.82Z"/>
    <path class="cls-20" d="m373.06,84.15v-6.77h1.12v.66c.24-.42.8-.77,1.55-.77,1.44,0,2.25,1.1,2.25,2.54s-.89,2.56-2.29,2.56c-.7,0-1.23-.3-1.48-.67v2.45h-1.15Zm2.45-5.85c-.76,0-1.31.6-1.31,1.51s.55,1.53,1.31,1.53,1.31-.6,1.31-1.53-.53-1.51-1.31-1.51Z"/>
    <path class="cls-20" d="m379.12,82.25v-7.24h1.16v7.24h-1.16Z"/>
    <path class="cls-20" d="m382.88,79.46l1.25-.19c.28-.04.36-.18.36-.35,0-.41-.28-.74-.92-.74s-.95.39-1,.88l-1.06-.24c.09-.84.85-1.59,2.05-1.59,1.5,0,2.07.85,2.07,1.82v2.42c0,.44.05.73.06.78h-1.08s-.05-.23-.05-.62c-.23.37-.71.77-1.5.77-1.02,0-1.65-.7-1.65-1.47,0-.87.64-1.35,1.47-1.47Zm1.61.77v-.22l-1.27.19c-.36.06-.65.26-.65.66,0,.33.25.63.71.63.65,0,1.21-.31,1.21-1.26Z"/>
    <path class="cls-20" d="m387.6,74.91c.42,0,.76.34.76.76s-.34.75-.76.75-.75-.33-.75-.75.34-.76.75-.76Zm-.57,7.34v-4.87h1.15v4.87h-1.15Z"/>
    <path class="cls-20" d="m390.78,82.25h-1.16v-4.87h1.13v.65c.32-.56.9-.79,1.44-.79,1.19,0,1.76.86,1.76,1.93v3.08h-1.16v-2.88c0-.6-.27-1.08-1-1.08-.66,0-1.01.51-1.01,1.15v2.81Z"/>
    <path class="cls-20" d="m396.82,77.38h1.01v1.03h-1.01v2.26c0,.43.19.61.62.61.16,0,.35-.03.4-.04v.96c-.07.03-.29.11-.71.11-.9,0-1.46-.54-1.46-1.45v-2.45h-.9v-1.03h.25c.52,0,.75-.33.75-.76v-.73h1.05v1.49Z"/>
    <path class="cls-20" d="m402.7,77.38h1.01v1.03h-1.01v2.26c0,.43.19.61.62.61.16,0,.35-.03.4-.04v.96c-.07.03-.29.11-.71.11-.9,0-1.46-.54-1.46-1.45v-2.45h-.9v-1.03h.25c.52,0,.75-.33.75-.76v-.73h1.05v1.49Z"/>
    <path class="cls-20" d="m409.52,79.81c0,1.5-1.07,2.59-2.53,2.59s-2.52-1.09-2.52-2.59,1.07-2.58,2.52-2.58,2.53,1.09,2.53,2.58Zm-1.17,0c0-1.01-.64-1.53-1.36-1.53s-1.36.52-1.36,1.53.65,1.55,1.36,1.55,1.36-.53,1.36-1.55Z"/>
    <path class="cls-20" d="m413.64,74.91c.42,0,.76.34.76.76s-.34.75-.76.75-.75-.33-.75-.75.34-.76.75-.76Zm-.57,7.34v-4.87h1.15v4.87h-1.15Z"/>
    <path class="cls-20" d="m416.82,82.25h-1.16v-4.87h1.13v.65c.32-.56.9-.79,1.44-.79,1.19,0,1.76.86,1.76,1.93v3.08h-1.16v-2.88c0-.6-.27-1.08-1-1.08-.66,0-1.01.51-1.01,1.15v2.81Z"/>
    <path class="cls-20" d="m422.23,79.81c0,.98.63,1.53,1.36,1.53s1.11-.53,1.22-.9l1.02.37c-.23.76-.96,1.59-2.24,1.59-1.43,0-2.52-1.11-2.52-2.59s1.09-2.58,2.49-2.58c1.31,0,2.03.82,2.23,1.6l-1.04.38c-.11-.43-.44-.91-1.18-.91s-1.34.53-1.34,1.51Z"/>
    <path class="cls-20" d="m426.87,82.25v-7.24h1.16v7.24h-1.16Z"/>
    <path class="cls-20" d="m431.26,82.39c-1.16,0-1.84-.86-1.84-1.94v-3.07h1.16v2.86c0,.6.28,1.11.98,1.11s1.02-.45,1.02-1.09v-2.88h1.16v3.98c0,.4.03.71.05.89h-1.11c-.02-.11-.04-.34-.04-.54-.24.44-.81.68-1.38.68Z"/>
    <path class="cls-20" d="m439.75,81.36c0,.44.04.81.05.89h-1.11c-.02-.11-.05-.43-.05-.63-.23.41-.74.75-1.43.75-1.4,0-2.34-1.1-2.34-2.57s.95-2.55,2.32-2.55c.85,0,1.28.39,1.43.7v-2.94h1.13v6.35Zm-2.41,0c.76,0,1.29-.63,1.29-1.56s-.52-1.51-1.28-1.51-1.32.59-1.32,1.52.52,1.55,1.31,1.55Z"/>
    <path class="cls-20" d="m445.57,80.86c-.26.85-1.03,1.54-2.2,1.54-1.32,0-2.49-.96-2.49-2.61,0-1.54,1.14-2.56,2.37-2.56,1.5,0,2.38.99,2.38,2.53,0,.19-.02.35-.03.37h-3.56c.03.74.61,1.27,1.33,1.27s1.06-.37,1.22-.85l.98.31Zm-1.11-1.58c-.02-.57-.4-1.08-1.2-1.08-.73,0-1.15.56-1.19,1.08h2.39Z"/>
    <path class="cls-20" d="m450.76,76.74v.64h1.13v1.01h-1.13v3.86h-1.17v-3.86h-.85v-1.01h.85v-.67c0-1.09.7-1.75,1.7-1.75.29,0,.53.06.61.1v.99c-.07-.02-.2-.05-.42-.05-.31,0-.72.14-.72.74Z"/>
    <path class="cls-20" d="m457.1,80.86c-.26.85-1.03,1.54-2.2,1.54-1.32,0-2.49-.96-2.49-2.61,0-1.54,1.14-2.56,2.37-2.56,1.5,0,2.38.99,2.38,2.53,0,.19-.02.35-.03.37h-3.56c.03.74.61,1.27,1.33,1.27s1.06-.37,1.22-.85l.98.31Zm-1.11-1.58c-.02-.57-.4-1.08-1.2-1.08-.73,0-1.15.56-1.19,1.08h2.39Z"/>
    <path class="cls-20" d="m462.86,81.36c0,.44.04.81.05.89h-1.11c-.02-.11-.05-.43-.05-.63-.23.41-.74.75-1.43.75-1.4,0-2.34-1.1-2.34-2.57s.95-2.55,2.32-2.55c.85,0,1.28.39,1.43.7v-2.94h1.13v6.35Zm-2.41,0c.76,0,1.29-.63,1.29-1.56s-.52-1.51-1.28-1.51-1.32.59-1.32,1.52.52,1.55,1.31,1.55Z"/>
    <path class="cls-20" d="m468.68,80.86c-.26.85-1.03,1.54-2.2,1.54-1.32,0-2.49-.96-2.49-2.61,0-1.54,1.14-2.56,2.37-2.56,1.5,0,2.38.99,2.38,2.53,0,.19-.02.35-.03.37h-3.56c.03.74.61,1.27,1.33,1.27s1.06-.37,1.22-.85l.98.31Zm-1.11-1.58c-.02-.57-.4-1.08-1.2-1.08-.73,0-1.15.56-1.19,1.08h2.39Z"/>
    <path class="cls-20" d="m472.72,78.53c-.13-.02-.26-.03-.38-.03-.9,0-1.31.52-1.31,1.43v2.32h-1.16v-4.87h1.13v.78c.23-.53.77-.84,1.41-.84.14,0,.26.02.31.03v1.18Z"/>
    <path class="cls-20" d="m474.8,79.46l1.25-.19c.28-.04.36-.18.36-.35,0-.41-.28-.74-.92-.74s-.95.39-1,.88l-1.06-.24c.09-.84.85-1.59,2.05-1.59,1.5,0,2.07.85,2.07,1.82v2.42c0,.44.05.73.06.78h-1.08s-.05-.23-.05-.62c-.23.37-.71.77-1.5.77-1.02,0-1.65-.7-1.65-1.47,0-.87.64-1.35,1.47-1.47Zm1.61.77v-.22l-1.27.19c-.36.06-.65.26-.65.66,0,.33.25.63.71.63.65,0,1.21-.31,1.21-1.26Z"/>
    <path class="cls-20" d="m478.95,82.25v-7.24h1.16v7.24h-1.16Z"/>
    <path class="cls-20" d="m488.71,79.81c0,1.5-1.07,2.59-2.53,2.59s-2.52-1.09-2.52-2.59,1.07-2.58,2.52-2.58,2.53,1.09,2.53,2.58Zm-1.17,0c0-1.01-.64-1.53-1.36-1.53s-1.36.52-1.36,1.53.65,1.55,1.36,1.55,1.36-.53,1.36-1.55Z"/>
    <path class="cls-20" d="m492.25,82.25h-1.16l-1.98-4.87h1.28l1.29,3.48,1.26-3.48h1.22l-1.91,4.87Z"/>
    <path class="cls-20" d="m499.28,80.86c-.26.85-1.03,1.54-2.2,1.54-1.32,0-2.49-.96-2.49-2.61,0-1.54,1.14-2.56,2.37-2.56,1.5,0,2.38.99,2.38,2.53,0,.19-.02.35-.03.37h-3.56c.03.74.61,1.27,1.33,1.27s1.06-.37,1.22-.85l.98.31Zm-1.11-1.58c-.02-.57-.4-1.08-1.2-1.08-.73,0-1.15.56-1.19,1.08h2.39Z"/>
    <path class="cls-20" d="m503.32,78.53c-.13-.02-.26-.03-.38-.03-.9,0-1.31.52-1.31,1.43v2.32h-1.16v-4.87h1.13v.78c.23-.53.77-.84,1.41-.84.14,0,.26.02.31.03v1.18Z"/>
    <path class="cls-20" d="m504.16,79.84v-1.03h2.82v1.03h-2.82Z"/>
    <path class="cls-20" d="m374.59,89.38h1.01v1.03h-1.01v2.26c0,.43.19.61.62.61.16,0,.35-.03.4-.04v.96c-.07.03-.29.11-.71.11-.9,0-1.46-.54-1.46-1.45v-2.45h-.9v-1.03h.25c.52,0,.75-.33.75-.76v-.73h1.05v1.49Z"/>
    <path class="cls-20" d="m377.28,86.91c.42,0,.76.34.76.76s-.34.75-.76.75-.75-.33-.75-.75.34-.76.75-.76Zm-.57,7.34v-4.87h1.15v4.87h-1.15Z"/>
    <path class="cls-20" d="m379.3,94.25v-4.87h1.11v.62c.28-.5.89-.76,1.44-.76.64,0,1.2.29,1.46.86.38-.64.95-.86,1.58-.86.88,0,1.72.56,1.72,1.85v3.16h-1.12v-2.97c0-.57-.29-1-.94-1-.61,0-1.01.48-1.01,1.08v2.89h-1.14v-2.97c0-.56-.28-1-.94-1-.62,0-1.01.46-1.01,1.08v2.89h-1.15Z"/>
    <path class="cls-20" d="m392.38,92.86c-.26.85-1.03,1.54-2.2,1.54-1.32,0-2.49-.96-2.49-2.61,0-1.54,1.14-2.56,2.37-2.56,1.5,0,2.38.99,2.38,2.53,0,.19-.02.35-.03.37h-3.56c.03.74.61,1.27,1.33,1.27s1.06-.37,1.22-.85l.98.31Zm-1.11-1.58c-.02-.57-.4-1.08-1.2-1.08-.73,0-1.15.56-1.19,1.08h2.39Z"/>
    <path class="cls-20" d="m396.84,91.81c0,.98.63,1.53,1.36,1.53s1.11-.53,1.22-.9l1.02.37c-.23.76-.96,1.59-2.24,1.59-1.43,0-2.52-1.11-2.52-2.59s1.09-2.58,2.49-2.58c1.31,0,2.03.82,2.23,1.6l-1.04.38c-.11-.43-.44-.91-1.18-.91s-1.34.53-1.34,1.51Z"/>
    <path class="cls-20" d="m401.48,94.25v-7.24h1.16v7.24h-1.16Z"/>
    <path class="cls-20" d="m405.24,91.46l1.25-.19c.28-.04.36-.18.36-.35,0-.41-.28-.74-.92-.74s-.95.39-1,.88l-1.06-.24c.09-.84.85-1.59,2.05-1.59,1.5,0,2.07.85,2.07,1.82v2.42c0,.44.05.73.06.78h-1.08s-.05-.23-.05-.62c-.23.37-.71.77-1.5.77-1.02,0-1.65-.7-1.65-1.47,0-.87.64-1.35,1.47-1.47Zm1.61.77v-.22l-1.27.19c-.36.06-.65.26-.65.66,0,.33.25.63.71.63.65,0,1.21-.31,1.21-1.26Z"/>
    <path class="cls-20" d="m409.96,86.91c.42,0,.76.34.76.76s-.34.75-.76.75-.75-.33-.75-.75.34-.76.75-.76Zm-.57,7.34v-4.87h1.15v4.87h-1.15Z"/>
    <path class="cls-20" d="m411.98,94.25v-4.87h1.11v.62c.28-.5.89-.76,1.44-.76.64,0,1.2.29,1.46.86.38-.64.95-.86,1.58-.86.88,0,1.72.56,1.72,1.85v3.16h-1.12v-2.97c0-.57-.29-1-.94-1-.61,0-1.01.48-1.01,1.08v2.89h-1.14v-2.97c0-.56-.28-1-.94-1-.62,0-1.01.46-1.01,1.08v2.89h-1.15Z"/>
    <path class="cls-20" d="m421.35,92.65c.04.44.37.83.99.83.48,0,.73-.26.73-.56,0-.26-.18-.46-.57-.54l-.72-.16c-.86-.19-1.31-.75-1.31-1.42,0-.85.78-1.57,1.79-1.57,1.36,0,1.8.88,1.88,1.36l-.98.28c-.04-.28-.25-.73-.9-.73-.41,0-.7.26-.7.56,0,.26.19.45.49.51l.74.15c.92.2,1.4.76,1.4,1.48s-.6,1.56-1.84,1.56c-1.41,0-1.95-.92-2.01-1.47l1.01-.28Z"/>
    <path class="cls-20" d="m425.93,92.68c.45,0,.82.37.82.82s-.37.81-.82.81-.81-.36-.81-.81.36-.82.81-.82Z"/>
    <path class="cls-20" d="m430.56,94.25v-7.09h2.51c1.93,0,3.45,1.28,3.45,3.56s-1.54,3.53-3.46,3.53h-2.5Zm2.46-1.1c1.23,0,2.25-.79,2.25-2.43s-1.01-2.46-2.24-2.46h-1.27v4.89h1.26Z"/>
    <path class="cls-20" d="m442.08,92.86c-.26.85-1.03,1.54-2.2,1.54-1.32,0-2.49-.96-2.49-2.61,0-1.54,1.14-2.56,2.37-2.56,1.5,0,2.38.99,2.38,2.53,0,.19-.02.35-.03.37h-3.56c.03.74.61,1.27,1.33,1.27s1.06-.37,1.22-.85l.98.31Zm-1.11-1.58c-.02-.57-.4-1.08-1.2-1.08-.73,0-1.15.56-1.19,1.08h2.39Z"/>
    <path class="cls-20" d="m444.79,88.74v.64h1.13v1.01h-1.13v3.86h-1.17v-3.86h-.85v-1.01h.85v-.67c0-1.09.7-1.75,1.7-1.75.29,0,.53.06.61.1v.99c-.07-.02-.2-.05-.42-.05-.31,0-.72.14-.72.74Z"/>
    <path class="cls-20" d="m451.13,92.86c-.26.85-1.03,1.54-2.2,1.54-1.32,0-2.49-.96-2.49-2.61,0-1.54,1.14-2.56,2.37-2.56,1.5,0,2.38.99,2.38,2.53,0,.19-.02.35-.03.37h-3.56c.03.74.61,1.27,1.33,1.27s1.06-.37,1.22-.85l.98.31Zm-1.11-1.58c-.02-.57-.4-1.08-1.2-1.08-.73,0-1.15.56-1.19,1.08h2.39Z"/>
    <path class="cls-20" d="m453.48,94.25h-1.16v-4.87h1.13v.65c.32-.56.9-.79,1.44-.79,1.19,0,1.76.86,1.76,1.93v3.08h-1.16v-2.88c0-.6-.27-1.08-1-1.08-.66,0-1.01.51-1.01,1.15v2.81Z"/>
    <path class="cls-20" d="m462.61,93.36c0,.44.04.81.05.89h-1.11c-.02-.11-.05-.43-.05-.63-.23.41-.74.75-1.43.75-1.4,0-2.34-1.1-2.34-2.57s.95-2.55,2.32-2.55c.85,0,1.28.39,1.43.7v-2.94h1.13v6.35Zm-2.41,0c.76,0,1.29-.63,1.29-1.56s-.52-1.51-1.28-1.51-1.32.59-1.32,1.52.52,1.55,1.31,1.55Z"/>
    <path class="cls-20" d="m465.21,91.46l1.25-.19c.28-.04.36-.18.36-.35,0-.41-.28-.74-.92-.74s-.95.39-1,.88l-1.06-.24c.09-.84.85-1.59,2.05-1.59,1.5,0,2.07.85,2.07,1.82v2.42c0,.44.05.73.06.78h-1.08s-.05-.23-.05-.62c-.23.37-.71.77-1.5.77-1.02,0-1.65-.7-1.65-1.47,0-.87.64-1.35,1.47-1.47Zm1.61.77v-.22l-1.27.19c-.36.06-.65.26-.65.66,0,.33.25.63.71.63.65,0,1.21-.31,1.21-1.26Z"/>
    <path class="cls-20" d="m470.52,94.25h-1.16v-4.87h1.13v.65c.32-.56.9-.79,1.44-.79,1.19,0,1.76.86,1.76,1.93v3.08h-1.16v-2.88c0-.6-.27-1.08-1-1.08-.66,0-1.01.51-1.01,1.15v2.81Z"/>
    <path class="cls-20" d="m476.56,89.38h1.01v1.03h-1.01v2.26c0,.43.19.61.62.61.16,0,.35-.03.4-.04v.96c-.07.03-.29.11-.71.11-.9,0-1.46-.54-1.46-1.45v-2.45h-.9v-1.03h.25c.52,0,.75-.33.75-.76v-.73h1.05v1.49Z"/>
    <path class="cls-20" d="m480.82,90.71c0-2.31,1.73-3.7,3.57-3.7s2.87,1.06,3.19,2.3l-1.13.38c-.21-.86-.87-1.55-2.06-1.55s-2.34.85-2.34,2.57,1.14,2.54,2.35,2.54,1.87-.76,2.11-1.56l1.1.36c-.32,1.2-1.4,2.35-3.21,2.35-1.91,0-3.58-1.38-3.58-3.69Z"/>
    <path class="cls-20" d="m489.98,91.48v2.77h-1.2v-7.09h2.63c1.36,0,2.26.92,2.26,2.16s-.9,2.16-2.26,2.16h-1.43Zm1.25-1.06c.76,0,1.22-.42,1.22-1.09s-.46-1.11-1.22-1.11h-1.25v2.2h1.25Z"/>
    <path class="cls-20" d="m494.38,90.71c0-2.31,1.73-3.7,3.57-3.7s2.87,1.06,3.19,2.3l-1.13.38c-.21-.86-.87-1.55-2.06-1.55s-2.34.85-2.34,2.57,1.14,2.54,2.35,2.54,1.87-.76,2.11-1.56l1.1.36c-.32,1.2-1.4,2.35-3.21,2.35-1.91,0-3.58-1.38-3.58-3.69Z"/>
    <path class="cls-20" d="m374.85,106.39c-1.16,0-1.84-.86-1.84-1.94v-3.07h1.16v2.86c0,.6.28,1.11.98,1.11s1.02-.45,1.02-1.09v-2.88h1.16v3.98c0,.4.03.71.05.89h-1.11c-.02-.11-.04-.34-.04-.54-.24.44-.81.68-1.38.68Z"/>
    <path class="cls-20" d="m379.44,104.65c.04.44.37.83.99.83.48,0,.73-.26.73-.56,0-.26-.18-.46-.57-.54l-.72-.16c-.86-.19-1.31-.75-1.31-1.42,0-.85.78-1.57,1.79-1.57,1.36,0,1.8.88,1.88,1.36l-.98.28c-.04-.28-.25-.73-.9-.73-.41,0-.7.26-.7.56,0,.26.19.45.49.51l.74.15c.92.2,1.4.76,1.4,1.48s-.6,1.56-1.84,1.56c-1.41,0-1.95-.92-2.01-1.47l1.01-.28Z"/>
    <path class="cls-20" d="m387.8,104.86c-.26.85-1.03,1.54-2.2,1.54-1.32,0-2.49-.96-2.49-2.61,0-1.54,1.14-2.56,2.37-2.56,1.5,0,2.38.99,2.38,2.53,0,.19-.02.35-.03.37h-3.56c.03.74.61,1.27,1.33,1.27s1.06-.37,1.22-.85l.98.31Zm-1.11-1.58c-.02-.57-.4-1.08-1.2-1.08-.73,0-1.15.56-1.19,1.08h2.39Z"/>
    <path class="cls-20" d="m389.66,104.65c.04.44.37.83.99.83.48,0,.73-.26.73-.56,0-.26-.18-.46-.57-.54l-.72-.16c-.86-.19-1.31-.75-1.31-1.42,0-.85.78-1.57,1.79-1.57,1.36,0,1.8.88,1.88,1.36l-.98.28c-.04-.28-.25-.73-.9-.73-.41,0-.7.26-.7.56,0,.26.19.45.49.51l.74.15c.92.2,1.4.76,1.4,1.48s-.6,1.56-1.84,1.56c-1.41,0-1.95-.92-2.01-1.47l1.01-.28Z"/>
    <path class="cls-20" d="m397.4,101.38h1.01v1.03h-1.01v2.26c0,.43.19.61.62.61.16,0,.35-.03.4-.04v.96c-.07.03-.29.11-.71.11-.9,0-1.46-.54-1.46-1.45v-2.45h-.9v-1.03h.25c.52,0,.75-.33.75-.76v-.73h1.05v1.49Z"/>
    <path class="cls-20" d="m400.68,106.25h-1.16v-7.24h1.16v2.84c.33-.43.88-.61,1.39-.61,1.2,0,1.78.86,1.78,1.93v3.08h-1.16v-2.88c0-.6-.27-1.08-1-1.08-.64,0-.99.48-1.01,1.1v2.86Z"/>
    <path class="cls-20" d="m405.81,98.91c.42,0,.76.34.76.76s-.34.75-.76.75-.75-.33-.75-.75.34-.76.75-.76Zm-.57,7.34v-4.87h1.15v4.87h-1.15Z"/>
    <path class="cls-20" d="m408.5,104.65c.04.44.37.83.99.83.48,0,.73-.26.73-.56,0-.26-.18-.46-.57-.54l-.72-.16c-.86-.19-1.31-.75-1.31-1.42,0-.85.78-1.57,1.79-1.57,1.36,0,1.8.88,1.88,1.36l-.98.28c-.04-.28-.25-.73-.9-.73-.41,0-.7.26-.7.56,0,.26.19.45.49.51l.74.15c.92.2,1.4.76,1.4,1.48s-.6,1.56-1.84,1.56c-1.41,0-1.95-.92-2.01-1.47l1.01-.28Z"/>
    <path class="cls-20" d="m416.24,101.38h1.01v1.03h-1.01v2.26c0,.43.19.61.62.61.16,0,.35-.03.4-.04v.96c-.07.03-.29.11-.71.11-.9,0-1.46-.54-1.46-1.45v-2.45h-.9v-1.03h.25c.52,0,.75-.33.75-.76v-.73h1.05v1.49Z"/>
    <path class="cls-20" d="m423.06,103.81c0,1.5-1.07,2.59-2.53,2.59s-2.52-1.09-2.52-2.59,1.07-2.58,2.52-2.58,2.53,1.09,2.53,2.58Zm-1.17,0c0-1.01-.64-1.53-1.36-1.53s-1.36.52-1.36,1.53.65,1.55,1.36,1.55,1.36-.53,1.36-1.55Z"/>
    <path class="cls-20" d="m426.61,106.25v-4.87h1.11v.62c.28-.5.89-.76,1.44-.76.64,0,1.2.29,1.46.86.38-.64.95-.86,1.58-.86.88,0,1.72.56,1.72,1.85v3.16h-1.12v-2.97c0-.57-.29-1-.94-1-.61,0-1.01.48-1.01,1.08v2.89h-1.14v-2.97c0-.56-.28-1-.94-1-.62,0-1.01.46-1.01,1.08v2.89h-1.15Z"/>
    <path class="cls-20" d="m440.05,103.81c0,1.5-1.07,2.59-2.53,2.59s-2.52-1.09-2.52-2.59,1.07-2.58,2.52-2.58,2.53,1.09,2.53,2.58Zm-1.17,0c0-1.01-.64-1.53-1.36-1.53s-1.36.52-1.36,1.53.65,1.55,1.36,1.55,1.36-.53,1.36-1.55Z"/>
    <path class="cls-20" d="m443.59,106.25h-1.16l-1.98-4.87h1.28l1.29,3.48,1.26-3.48h1.22l-1.91,4.87Z"/>
    <path class="cls-20" d="m450.62,104.86c-.26.85-1.03,1.54-2.2,1.54-1.32,0-2.49-.96-2.49-2.61,0-1.54,1.14-2.56,2.37-2.56,1.5,0,2.38.99,2.38,2.53,0,.19-.02.35-.03.37h-3.56c.03.74.61,1.27,1.33,1.27s1.06-.37,1.22-.85l.98.31Zm-1.11-1.58c-.02-.57-.4-1.08-1.2-1.08-.73,0-1.15.56-1.19,1.08h2.39Z"/>
    <path class="cls-20" d="m455.57,101.38h1.01v1.03h-1.01v2.26c0,.43.19.61.62.61.16,0,.35-.03.4-.04v.96c-.07.03-.29.11-.71.11-.9,0-1.46-.54-1.46-1.45v-2.45h-.9v-1.03h.25c.52,0,.75-.33.75-.76v-.73h1.05v1.49Z"/>
    <path class="cls-20" d="m458.85,106.25h-1.16v-7.24h1.16v2.84c.33-.43.88-.61,1.39-.61,1.2,0,1.78.86,1.78,1.93v3.08h-1.16v-2.88c0-.6-.27-1.08-1-1.08-.64,0-.99.48-1.01,1.1v2.86Z"/>
    <path class="cls-20" d="m467.79,104.86c-.26.85-1.03,1.54-2.2,1.54-1.32,0-2.49-.96-2.49-2.61,0-1.54,1.14-2.56,2.37-2.56,1.5,0,2.38.99,2.38,2.53,0,.19-.02.35-.03.37h-3.56c.03.74.61,1.27,1.33,1.27s1.06-.37,1.22-.85l.98.31Zm-1.11-1.58c-.02-.57-.4-1.08-1.2-1.08-.73,0-1.15.56-1.19,1.08h2.39Z"/>
    <path class="cls-20" d="m472.25,103.81c0,.98.63,1.53,1.36,1.53s1.11-.53,1.22-.9l1.02.37c-.23.76-.96,1.59-2.24,1.59-1.43,0-2.52-1.11-2.52-2.59s1.09-2.58,2.49-2.58c1.31,0,2.03.82,2.23,1.6l-1.04.38c-.11-.43-.44-.91-1.18-.91s-1.34.53-1.34,1.51Z"/>
    <path class="cls-20" d="m478.05,103.46l1.25-.19c.28-.04.36-.18.36-.35,0-.41-.28-.74-.92-.74s-.95.39-1,.88l-1.06-.24c.09-.84.85-1.59,2.05-1.59,1.5,0,2.07.85,2.07,1.82v2.42c0,.44.05.73.06.78h-1.08s-.05-.23-.05-.62c-.23.37-.71.77-1.5.77-1.02,0-1.65-.7-1.65-1.47,0-.87.64-1.35,1.47-1.47Zm1.61.77v-.22l-1.27.19c-.36.06-.65.26-.65.66,0,.33.25.63.71.63.65,0,1.21-.31,1.21-1.26Z"/>
    <path class="cls-20" d="m482.87,104.65c.04.44.37.83.99.83.48,0,.73-.26.73-.56,0-.26-.18-.46-.57-.54l-.72-.16c-.86-.19-1.31-.75-1.31-1.42,0-.85.78-1.57,1.79-1.57,1.36,0,1.8.88,1.88,1.36l-.98.28c-.04-.28-.25-.73-.9-.73-.41,0-.7.26-.7.56,0,.26.19.45.49.51l.74.15c.92.2,1.4.76,1.4,1.48s-.6,1.56-1.84,1.56c-1.41,0-1.95-.92-2.01-1.47l1.01-.28Z"/>
    <path class="cls-20" d="m491.23,104.86c-.26.85-1.03,1.54-2.2,1.54-1.32,0-2.49-.96-2.49-2.61,0-1.54,1.14-2.56,2.37-2.56,1.5,0,2.38.99,2.38,2.53,0,.19-.02.35-.03.37h-3.56c.03.74.61,1.27,1.33,1.27s1.06-.37,1.22-.85l.98.31Zm-1.11-1.58c-.02-.57-.4-1.08-1.2-1.08-.73,0-1.15.56-1.19,1.08h2.39Z"/>
    <path class="cls-20" d="m496.18,101.38h1.01v1.03h-1.01v2.26c0,.43.19.61.62.61.16,0,.35-.03.4-.04v.96c-.07.03-.29.11-.71.11-.9,0-1.46-.54-1.46-1.45v-2.45h-.9v-1.03h.25c.52,0,.75-.33.75-.76v-.73h1.05v1.49Z"/>
    <path class="cls-20" d="m503,103.81c0,1.5-1.07,2.59-2.53,2.59s-2.52-1.09-2.52-2.59,1.07-2.58,2.52-2.58,2.53,1.09,2.53,2.58Zm-1.17,0c0-1.01-.64-1.53-1.36-1.53s-1.36.52-1.36,1.53.65,1.55,1.36,1.55,1.36-.53,1.36-1.55Z"/>
    <path class="cls-20" d="m373.23,118.25v-7.09h4.41v1.13h-3.21v1.99h2.88v1.11h-2.88v2.86h-1.2Z"/>
    <path class="cls-20" d="m382.92,116.86c-.26.85-1.03,1.54-2.2,1.54-1.32,0-2.49-.96-2.49-2.61,0-1.54,1.14-2.56,2.37-2.56,1.5,0,2.38.99,2.38,2.53,0,.19-.02.35-.03.37h-3.56c.03.74.61,1.27,1.33,1.27s1.06-.37,1.22-.85l.98.31Zm-1.11-1.58c-.02-.57-.4-1.08-1.2-1.08-.73,0-1.15.56-1.19,1.08h2.39Z"/>
    <path class="cls-20" d="m388.68,117.36c0,.44.04.81.05.89h-1.11c-.02-.11-.05-.43-.05-.63-.23.41-.74.75-1.43.75-1.4,0-2.34-1.1-2.34-2.57s.95-2.55,2.32-2.55c.85,0,1.28.39,1.43.7v-2.94h1.13v6.35Zm-2.41,0c.76,0,1.29-.63,1.29-1.56s-.52-1.51-1.28-1.51-1.32.59-1.32,1.52.52,1.55,1.31,1.55Z"/>
    <path class="cls-20" d="m394.5,116.86c-.26.85-1.03,1.54-2.2,1.54-1.32,0-2.49-.96-2.49-2.61,0-1.54,1.14-2.56,2.37-2.56,1.5,0,2.38.99,2.38,2.53,0,.19-.02.35-.03.37h-3.56c.03.74.61,1.27,1.33,1.27s1.06-.37,1.22-.85l.98.31Zm-1.11-1.58c-.02-.57-.4-1.08-1.2-1.08-.73,0-1.15.56-1.19,1.08h2.39Z"/>
    <path class="cls-20" d="m398.54,114.53c-.13-.02-.26-.03-.38-.03-.9,0-1.31.52-1.31,1.43v2.32h-1.16v-4.87h1.13v.78c.23-.53.77-.84,1.41-.84.14,0,.26.02.31.03v1.18Z"/>
    <path class="cls-20" d="m400.62,115.46l1.25-.19c.28-.04.36-.18.36-.35,0-.41-.28-.74-.92-.74s-.95.39-1,.88l-1.06-.24c.09-.84.85-1.59,2.05-1.59,1.5,0,2.07.85,2.07,1.82v2.42c0,.44.05.73.06.78h-1.08s-.05-.23-.05-.62c-.23.37-.71.77-1.5.77-1.02,0-1.65-.7-1.65-1.47,0-.87.64-1.35,1.47-1.47Zm1.61.77v-.22l-1.27.19c-.36.06-.65.26-.65.66,0,.33.25.63.71.63.65,0,1.21-.31,1.21-1.26Z"/>
    <path class="cls-20" d="m404.77,118.25v-7.24h1.16v7.24h-1.16Z"/>
    <path class="cls-20" d="m409.51,114.71c0-2.31,1.73-3.7,3.57-3.7s2.87,1.06,3.19,2.3l-1.13.38c-.21-.86-.87-1.55-2.06-1.55s-2.34.85-2.34,2.57,1.14,2.54,2.35,2.54,1.87-.76,2.11-1.56l1.1.36c-.32,1.2-1.4,2.35-3.21,2.35-1.91,0-3.58-1.38-3.58-3.69Z"/>
    <path class="cls-20" d="m422.04,115.81c0,1.5-1.07,2.59-2.53,2.59s-2.52-1.09-2.52-2.59,1.07-2.58,2.52-2.58,2.53,1.09,2.53,2.58Zm-1.17,0c0-1.01-.64-1.53-1.36-1.53s-1.36.52-1.36,1.53.65,1.55,1.36,1.55,1.36-.53,1.36-1.55Z"/>
    <path class="cls-20" d="m424.96,118.39c-1.16,0-1.84-.86-1.84-1.94v-3.07h1.16v2.86c0,.6.28,1.11.98,1.11s1.02-.45,1.02-1.09v-2.88h1.16v3.98c0,.4.03.71.05.89h-1.11c-.02-.11-.04-.34-.04-.54-.24.44-.81.68-1.38.68Z"/>
    <path class="cls-20" d="m431.73,114.53c-.13-.02-.26-.03-.38-.03-.9,0-1.31.52-1.31,1.43v2.32h-1.16v-4.87h1.13v.78c.23-.53.77-.84,1.41-.84.14,0,.26.02.31.03v1.18Z"/>
    <path class="cls-20" d="m434.18,113.38h1.01v1.03h-1.01v2.26c0,.43.19.61.62.61.16,0,.35-.03.4-.04v.96c-.07.03-.29.11-.71.11-.9,0-1.46-.54-1.46-1.45v-2.45h-.9v-1.03h.25c.52,0,.75-.33.75-.76v-.73h1.05v1.49Z"/>
    <path class="cls-20" d="m436.9,116.68c.45,0,.82.37.82.82s-.37.81-.82.81-.81-.36-.81-.81.36-.82.81-.82Z"/>
  </g>
  <text class="cls-19" transform="translate(728.72 11.96)"><tspan class="cls-26" x="0" y="0">M</tspan><tspan class="cls-22" x="13.3" y="0">a</tspan><tspan class="cls-16" x="20.51" y="0">y</tspan><tspan x="27.87" y="0" xml:space="preserve"> 2016</tspan></text>
  <text class="cls-18" transform="translate(731.92 58.25)"><tspan class="cls-3" x="0" y="0">F</tspan><tspan x="5.48" y="0">orme</tspan><tspan class="cls-7" x="29.39" y="0">r</tspan><tspan x="32.96" y="0" xml:space="preserve"> home </tspan><tspan class="cls-32" x="63.66" y="0">a</tspan><tspan class="cls-12" x="68.92" y="0">t</tspan><tspan class="cls-23" x="72.57" y="0">t</tspan><tspan x="76.18" y="0">enda</tspan><tspan class="cls-8" x="98.79" y="0">n</tspan><tspan x="104.46" y="0">ts file a </tspan><tspan x="0" y="12">lawsuit in </tspan><tspan class="cls-1" x="45.91" y="12">N</tspan><tspan class="cls-28" x="53.54" y="12">e</tspan><tspan class="cls-31" x="59.03" y="12">w</tspan><tspan class="cls-33" x="67.13" y="12"> </tspan><tspan class="cls-37" x="69.2" y="12">Y</tspan><tspan x="74.56" y="12">ork </tspan><tspan class="cls-13" x="92.06" y="12">S</tspan><tspan x="97.96" y="12">t</tspan><tspan class="cls-32" x="101.61" y="12">a</tspan><tspan class="cls-24" x="106.87" y="12">t</tspan><tspan x="110.48" y="12">e </tspan><tspan class="cls-32" x="0" y="24">S</tspan><tspan x="5.97" y="24">up</tspan><tspan class="cls-25" x="17.74" y="24">r</tspan><tspan x="21.44" y="24">eme Court against CPC </tspan><tspan class="cls-9" x="131.72" y="24">f</tspan><tspan x="135.26" y="24">o</tspan><tspan class="cls-2" x="141.13" y="24">r</tspan><tspan x="144.7" y="24"> </tspan><tspan x="0" y="36">wage and hou</tspan><tspan class="cls-7" x="64.26" y="36">r</tspan><tspan class="cls-15" x="67.83" y="36"> </tspan><tspan x="70" y="36">viol</tspan><tspan class="cls-32" x="86.47" y="36">a</tspan><tspan x="91.73" y="36">tions.</tspan></text>
  <text class="cls-19" transform="translate(546.72 11.96)"><tspan x="0" y="0">April 8, 2016</tspan></text>
  <g>
    <path class="cls-20" d="m553.58,52.29v5.96h-1.2v-5.96h-2.3v-1.13h5.81v1.13h-2.31Z"/>
    <path class="cls-20" d="m557.94,58.25h-1.16v-7.24h1.16v2.84c.33-.43.88-.61,1.39-.61,1.2,0,1.78.86,1.78,1.93v3.08h-1.16v-2.88c0-.6-.27-1.08-1-1.08-.64,0-.99.48-1.01,1.1v2.86Z"/>
    <path class="cls-20" d="m566.88,56.86c-.26.85-1.03,1.54-2.2,1.54-1.32,0-2.49-.96-2.49-2.61,0-1.54,1.14-2.56,2.37-2.56,1.5,0,2.38.99,2.38,2.53,0,.19-.02.35-.03.37h-3.56c.03.74.61,1.27,1.33,1.27s1.06-.37,1.22-.85l.98.31Zm-1.11-1.58c-.02-.57-.4-1.08-1.2-1.08-.73,0-1.15.56-1.19,1.08h2.39Z"/>
    <path class="cls-20" d="m572.07,52.74v.64h1.13v1.01h-1.13v3.86h-1.17v-3.86h-.85v-1.01h.85v-.67c0-1.09.7-1.75,1.7-1.75.29,0,.53.06.61.1v.99c-.07-.02-.2-.05-.42-.05-.31,0-.72.14-.72.74Z"/>
    <path class="cls-20" d="m578.41,56.86c-.26.85-1.03,1.54-2.2,1.54-1.32,0-2.49-.96-2.49-2.61,0-1.54,1.14-2.56,2.37-2.56,1.5,0,2.38.99,2.38,2.53,0,.19-.02.35-.03.37h-3.56c.03.74.61,1.27,1.33,1.27s1.06-.37,1.22-.85l.98.31Zm-1.11-1.58c-.02-.57-.4-1.08-1.2-1.08-.73,0-1.15.56-1.19,1.08h2.39Z"/>
    <path class="cls-20" d="m584.17,57.36c0,.44.04.81.05.89h-1.11c-.02-.11-.05-.43-.05-.63-.23.41-.74.75-1.43.75-1.4,0-2.34-1.1-2.34-2.57s.95-2.55,2.32-2.55c.85,0,1.28.39,1.43.7v-2.94h1.13v6.35Zm-2.41,0c.76,0,1.29-.63,1.29-1.56s-.52-1.51-1.28-1.51-1.32.59-1.32,1.52.52,1.55,1.31,1.55Z"/>
    <path class="cls-20" d="m589.99,56.86c-.26.85-1.03,1.54-2.2,1.54-1.32,0-2.49-.96-2.49-2.61,0-1.54,1.14-2.56,2.37-2.56,1.5,0,2.38.99,2.38,2.53,0,.19-.02.35-.03.37h-3.56c.03.74.61,1.27,1.33,1.27s1.06-.37,1.22-.85l.98.31Zm-1.11-1.58c-.02-.57-.4-1.08-1.2-1.08-.73,0-1.15.56-1.19,1.08h2.39Z"/>
    <path class="cls-20" d="m594.03,54.53c-.13-.02-.26-.03-.38-.03-.9,0-1.31.52-1.31,1.43v2.32h-1.16v-4.87h1.13v.78c.23-.53.77-.84,1.41-.84.14,0,.26.02.31.03v1.18Z"/>
    <path class="cls-20" d="m596.11,55.46l1.25-.19c.28-.04.36-.18.36-.35,0-.41-.28-.74-.92-.74s-.95.39-1,.88l-1.06-.24c.09-.84.85-1.59,2.05-1.59,1.5,0,2.07.85,2.07,1.82v2.42c0,.44.05.73.06.78h-1.08s-.05-.23-.05-.62c-.23.37-.71.77-1.5.77-1.02,0-1.65-.7-1.65-1.47,0-.87.64-1.35,1.47-1.47Zm1.61.77v-.22l-1.27.19c-.36.06-.65.26-.65.66,0,.33.25.63.71.63.65,0,1.21-.31,1.21-1.26Z"/>
    <path class="cls-20" d="m600.26,58.25v-7.24h1.16v7.24h-1.16Z"/>
    <path class="cls-20" d="m606.13,55.81c0,.98.63,1.53,1.36,1.53s1.11-.53,1.22-.9l1.02.37c-.23.76-.96,1.59-2.24,1.59-1.43,0-2.52-1.11-2.52-2.59s1.09-2.58,2.49-2.58c1.31,0,2.03.82,2.23,1.6l-1.04.38c-.11-.43-.44-.91-1.18-.91s-1.34.53-1.34,1.51Z"/>
    <path class="cls-20" d="m615.51,55.81c0,1.5-1.07,2.59-2.53,2.59s-2.52-1.09-2.52-2.59,1.07-2.58,2.52-2.58,2.53,1.09,2.53,2.58Zm-1.17,0c0-1.01-.64-1.53-1.36-1.53s-1.36.52-1.36,1.53.65,1.55,1.36,1.55,1.36-.53,1.36-1.55Z"/>
    <path class="cls-20" d="m618.43,58.39c-1.16,0-1.84-.86-1.84-1.94v-3.07h1.16v2.86c0,.6.28,1.11.98,1.11s1.02-.45,1.02-1.09v-2.88h1.16v3.98c0,.4.03.71.05.89h-1.11c-.02-.11-.04-.34-.04-.54-.24.44-.81.68-1.38.68Z"/>
    <path class="cls-20" d="m625.2,54.53c-.13-.02-.26-.03-.38-.03-.9,0-1.31.52-1.31,1.43v2.32h-1.16v-4.87h1.13v.78c.23-.53.77-.84,1.41-.84.14,0,.26.02.31.03v1.18Z"/>
    <path class="cls-20" d="m627.65,53.38h1.01v1.03h-1.01v2.26c0,.43.19.61.62.61.16,0,.35-.03.4-.04v.96c-.07.03-.29.11-.71.11-.9,0-1.46-.54-1.46-1.45v-2.45h-.9v-1.03h.25c.52,0,.75-.33.75-.76v-.73h1.05v1.49Z"/>
    <path class="cls-20" d="m632.19,53.38h1.16v5.36c0,.91-.55,1.56-1.45,1.56-.39,0-.61-.07-.66-.09v-.96s.22.03.35.03c.44,0,.6-.23.6-.63v-5.27Zm.57-2.48c.42,0,.76.34.76.76s-.34.75-.76.75-.75-.34-.75-.75.34-.76.75-.76Z"/>
    <path class="cls-20" d="m636.58,58.39c-1.16,0-1.84-.86-1.84-1.94v-3.07h1.16v2.86c0,.6.28,1.11.98,1.11s1.02-.45,1.02-1.09v-2.88h1.16v3.98c0,.4.03.71.05.89h-1.11c-.02-.11-.04-.34-.04-.54-.24.44-.81.68-1.38.68Z"/>
    <path class="cls-20" d="m645.07,57.36c0,.44.04.81.05.89h-1.11c-.02-.11-.05-.43-.05-.63-.23.41-.74.75-1.43.75-1.4,0-2.34-1.1-2.34-2.57s.95-2.55,2.32-2.55c.85,0,1.28.39,1.43.7v-2.94h1.13v6.35Zm-2.41,0c.76,0,1.29-.63,1.29-1.56s-.52-1.51-1.28-1.51-1.32.59-1.32,1.52.52,1.55,1.31,1.55Z"/>
    <path class="cls-20" d="m647.27,58.24c.08.6.55,1.05,1.22,1.05.92,0,1.38-.47,1.38-1.46v-.51c-.21.38-.7.71-1.41.71-1.3,0-2.25-1-2.25-2.37s.91-2.37,2.25-2.37c.76,0,1.23.31,1.44.71v-.62h1.12v4.41c0,1.3-.67,2.51-2.5,2.51-1.29,0-2.19-.8-2.32-1.78l1.07-.28Zm2.63-2.58c0-.83-.53-1.37-1.25-1.37s-1.27.54-1.27,1.37.51,1.38,1.27,1.38,1.25-.54,1.25-1.38Z"/>
    <path class="cls-20" d="m656.84,56.86c-.26.85-1.03,1.54-2.2,1.54-1.32,0-2.49-.96-2.49-2.61,0-1.54,1.14-2.56,2.37-2.56,1.5,0,2.38.99,2.38,2.53,0,.19-.02.35-.03.37h-3.56c.03.74.61,1.27,1.33,1.27s1.06-.37,1.22-.85l.98.31Zm-1.11-1.58c-.02-.57-.4-1.08-1.2-1.08-.73,0-1.15.56-1.19,1.08h2.39Z"/>
    <path class="cls-20" d="m663.3,54.53c-.13-.02-.26-.03-.38-.03-.9,0-1.31.52-1.31,1.43v2.32h-1.16v-4.87h1.13v.78c.23-.53.77-.84,1.41-.84.14,0,.26.02.31.03v1.18Z"/>
    <path class="cls-20" d="m666.01,58.39c-1.16,0-1.84-.86-1.84-1.94v-3.07h1.16v2.86c0,.6.28,1.11.98,1.11s1.02-.45,1.02-1.09v-2.88h1.16v3.98c0,.4.03.71.05.89h-1.11c-.02-.11-.04-.34-.04-.54-.24.44-.81.68-1.38.68Z"/>
    <path class="cls-20" d="m669.93,58.25v-7.24h1.16v7.24h-1.16Z"/>
    <path class="cls-20" d="m676.91,56.86c-.26.85-1.03,1.54-2.2,1.54-1.32,0-2.49-.96-2.49-2.61,0-1.54,1.14-2.56,2.37-2.56,1.5,0,2.38.99,2.38,2.53,0,.19-.02.35-.03.37h-3.56c.03.74.61,1.27,1.33,1.27s1.06-.37,1.22-.85l.98.31Zm-1.11-1.58c-.02-.57-.4-1.08-1.2-1.08-.73,0-1.15.56-1.19,1.08h2.39Z"/>
    <path class="cls-20" d="m678.77,56.65c.04.44.37.83.99.83.48,0,.73-.26.73-.56,0-.26-.18-.46-.57-.54l-.72-.16c-.86-.19-1.31-.75-1.31-1.42,0-.85.78-1.57,1.79-1.57,1.36,0,1.8.88,1.88,1.36l-.98.28c-.04-.28-.25-.73-.9-.73-.41,0-.7.26-.7.56,0,.26.19.45.49.51l.74.15c.92.2,1.4.76,1.4,1.48s-.6,1.56-1.84,1.56c-1.41,0-1.95-.92-2.01-1.47l1.01-.28Z"/>
    <path class="cls-20" d="m686.51,53.38h1.01v1.03h-1.01v2.26c0,.43.19.61.62.61.16,0,.35-.03.4-.04v.96c-.07.03-.29.11-.71.11-.9,0-1.46-.54-1.46-1.45v-2.45h-.9v-1.03h.25c.52,0,.75-.33.75-.76v-.73h1.05v1.49Z"/>
    <path class="cls-20" d="m693.33,55.81c0,1.5-1.07,2.59-2.53,2.59s-2.52-1.09-2.52-2.59,1.07-2.58,2.52-2.58,2.53,1.09,2.53,2.58Zm-1.17,0c0-1.01-.64-1.53-1.36-1.53s-1.36.52-1.36,1.53.65,1.55,1.36,1.55,1.36-.53,1.36-1.55Z"/>
    <path class="cls-20" d="m550.63,70.25v-7.24h1.16v7.24h-1.16Z"/>
    <path class="cls-20" d="m557.61,68.86c-.26.85-1.03,1.54-2.2,1.54-1.32,0-2.49-.96-2.49-2.61,0-1.54,1.14-2.56,2.37-2.56,1.5,0,2.38.99,2.38,2.53,0,.19-.02.35-.03.37h-3.56c.03.74.61,1.27,1.33,1.27s1.06-.37,1.22-.85l.98.31Zm-1.11-1.58c-.02-.57-.4-1.08-1.2-1.08-.73,0-1.15.56-1.19,1.08h2.39Z"/>
    <path class="cls-20" d="m560.28,65.38h1.01v1.03h-1.01v2.26c0,.43.19.61.62.61.16,0,.35-.03.4-.04v.96c-.07.03-.29.11-.71.11-.9,0-1.46-.54-1.46-1.45v-2.45h-.9v-1.03h.25c.52,0,.75-.33.75-.76v-.73h1.05v1.49Z"/>
    <path class="cls-20" d="m566.16,65.38h1.01v1.03h-1.01v2.26c0,.43.19.61.62.61.16,0,.35-.03.4-.04v.96c-.07.03-.29.11-.71.11-.9,0-1.46-.54-1.46-1.45v-2.45h-.9v-1.03h.25c.52,0,.75-.33.75-.76v-.73h1.05v1.49Z"/>
    <path class="cls-20" d="m569.44,70.25h-1.16v-7.24h1.16v2.84c.33-.43.88-.61,1.39-.61,1.2,0,1.78.86,1.78,1.93v3.08h-1.16v-2.88c0-.6-.27-1.08-1-1.08-.64,0-.99.48-1.01,1.1v2.86Z"/>
    <path class="cls-20" d="m578.38,68.86c-.26.85-1.03,1.54-2.2,1.54-1.32,0-2.49-.96-2.49-2.61,0-1.54,1.14-2.56,2.37-2.56,1.5,0,2.38.99,2.38,2.53,0,.19-.02.35-.03.37h-3.56c.03.74.61,1.27,1.33,1.27s1.06-.37,1.22-.85l.98.31Zm-1.11-1.58c-.02-.57-.4-1.08-1.2-1.08-.73,0-1.15.56-1.19,1.08h2.39Z"/>
    <path class="cls-20" d="m583.15,67.46l1.25-.19c.28-.04.36-.18.36-.35,0-.41-.28-.74-.92-.74s-.95.39-1,.88l-1.06-.24c.09-.84.85-1.59,2.05-1.59,1.5,0,2.07.85,2.07,1.82v2.42c0,.44.05.73.06.78h-1.08s-.05-.23-.05-.62c-.23.37-.71.77-1.5.77-1.02,0-1.65-.7-1.65-1.47,0-.87.64-1.35,1.47-1.47Zm1.61.77v-.22l-1.27.19c-.36.06-.65.26-.65.66,0,.33.25.63.71.63.65,0,1.21-.31,1.21-1.26Z"/>
    <path class="cls-20" d="m590.15,66.53c-.13-.02-.26-.03-.38-.03-.9,0-1.31.52-1.31,1.43v2.32h-1.16v-4.87h1.13v.78c.23-.53.77-.84,1.41-.84.14,0,.26.02.31.03v1.18Z"/>
    <path class="cls-20" d="m591.07,70.25v-7.24h1.14v2.97c.22-.38.78-.73,1.53-.73,1.46,0,2.25,1.11,2.25,2.54s-.87,2.58-2.29,2.58c-.69,0-1.22-.3-1.5-.77v.65h-1.13Zm2.44-3.97c-.74,0-1.31.55-1.31,1.52s.57,1.54,1.31,1.54,1.31-.58,1.31-1.54-.54-1.52-1.31-1.52Z"/>
    <path class="cls-20" d="m597.7,62.91c.42,0,.76.34.76.76s-.34.75-.76.75-.75-.33-.75-.75.34-.76.75-.76Zm-.57,7.34v-4.87h1.15v4.87h-1.15Z"/>
    <path class="cls-20" d="m601.25,65.38h1.01v1.03h-1.01v2.26c0,.43.19.61.62.61.16,0,.35-.03.4-.04v.96c-.07.03-.29.11-.71.11-.9,0-1.46-.54-1.46-1.45v-2.45h-.9v-1.03h.25c.52,0,.75-.33.75-.76v-.73h1.05v1.49Z"/>
    <path class="cls-20" d="m606.22,66.53c-.13-.02-.26-.03-.38-.03-.9,0-1.31.52-1.31,1.43v2.32h-1.16v-4.87h1.13v.78c.23-.53.77-.84,1.41-.84.14,0,.26.02.31.03v1.18Z"/>
    <path class="cls-20" d="m608.3,67.46l1.25-.19c.28-.04.36-.18.36-.35,0-.41-.28-.74-.92-.74s-.95.39-1,.88l-1.06-.24c.09-.84.85-1.59,2.05-1.59,1.5,0,2.07.85,2.07,1.82v2.42c0,.44.05.73.06.78h-1.08s-.05-.23-.05-.62c-.23.37-.71.77-1.5.77-1.02,0-1.65-.7-1.65-1.47,0-.87.64-1.35,1.47-1.47Zm1.61.77v-.22l-1.27.19c-.36.06-.65.26-.65.66,0,.33.25.63.71.63.65,0,1.21-.31,1.21-1.26Z"/>
    <path class="cls-20" d="m613.93,65.38h1.01v1.03h-1.01v2.26c0,.43.19.61.62.61.16,0,.35-.03.4-.04v.96c-.07.03-.29.11-.71.11-.9,0-1.46-.54-1.46-1.45v-2.45h-.9v-1.03h.25c.52,0,.75-.33.75-.76v-.73h1.05v1.49Z"/>
    <path class="cls-20" d="m620.75,67.81c0,1.5-1.07,2.59-2.53,2.59s-2.52-1.09-2.52-2.59,1.07-2.58,2.52-2.58,2.53,1.09,2.53,2.58Zm-1.17,0c0-1.01-.64-1.53-1.36-1.53s-1.36.52-1.36,1.53.65,1.55,1.36,1.55,1.36-.53,1.36-1.55Z"/>
    <path class="cls-20" d="m624.73,66.53c-.13-.02-.26-.03-.38-.03-.9,0-1.31.52-1.31,1.43v2.32h-1.16v-4.87h1.13v.78c.23-.53.77-.84,1.41-.84.14,0,.26.02.31.03v1.18Z"/>
    <path class="cls-20" d="m632.44,69.36c0,.44.04.81.05.89h-1.11c-.02-.11-.05-.43-.05-.63-.23.41-.74.75-1.43.75-1.4,0-2.34-1.1-2.34-2.57s.95-2.55,2.32-2.55c.85,0,1.28.39,1.43.7v-2.94h1.13v6.35Zm-2.41,0c.76,0,1.29-.63,1.29-1.56s-.52-1.51-1.28-1.51-1.32.59-1.32,1.52.52,1.55,1.31,1.55Z"/>
    <path class="cls-20" d="m638.26,68.86c-.26.85-1.03,1.54-2.2,1.54-1.32,0-2.49-.96-2.49-2.61,0-1.54,1.14-2.56,2.37-2.56,1.5,0,2.38.99,2.38,2.53,0,.19-.02.35-.03.37h-3.56c.03.74.61,1.27,1.33,1.27s1.06-.37,1.22-.85l.98.31Zm-1.11-1.58c-.02-.57-.4-1.08-1.2-1.08-.73,0-1.15.56-1.19,1.08h2.39Z"/>
    <path class="cls-20" d="m640.3,67.81c0,.98.63,1.53,1.36,1.53s1.11-.53,1.22-.9l1.02.37c-.23.76-.96,1.59-2.24,1.59-1.43,0-2.52-1.11-2.52-2.59s1.09-2.58,2.49-2.58c1.31,0,2.03.82,2.23,1.6l-1.04.38c-.11-.43-.44-.91-1.18-.91s-1.34.53-1.34,1.51Z"/>
    <path class="cls-20" d="m645.51,62.91c.42,0,.76.34.76.76s-.34.75-.76.75-.75-.33-.75-.75.34-.76.75-.76Zm-.57,7.34v-4.87h1.15v4.87h-1.15Z"/>
    <path class="cls-20" d="m652.1,69.36c0,.44.04.81.05.89h-1.11c-.02-.11-.05-.43-.05-.63-.23.41-.74.75-1.43.75-1.4,0-2.34-1.1-2.34-2.57s.95-2.55,2.32-2.55c.85,0,1.28.39,1.43.7v-2.94h1.13v6.35Zm-2.41,0c.76,0,1.29-.63,1.29-1.56s-.52-1.51-1.28-1.51-1.32.59-1.32,1.52.52,1.55,1.31,1.55Z"/>
    <path class="cls-20" d="m657.92,68.86c-.26.85-1.03,1.54-2.2,1.54-1.32,0-2.49-.96-2.49-2.61,0-1.54,1.14-2.56,2.37-2.56,1.5,0,2.38.99,2.38,2.53,0,.19-.02.35-.03.37h-3.56c.03.74.61,1.27,1.33,1.27s1.06-.37,1.22-.85l.98.31Zm-1.11-1.58c-.02-.57-.4-1.08-1.2-1.08-.73,0-1.15.56-1.19,1.08h2.39Z"/>
    <path class="cls-20" d="m665.36,65.38l1.15,3.37.97-3.37h1.18l-1.56,4.87h-1.16l-1.21-3.5-1.18,3.5h-1.19l-1.58-4.87h1.24l.99,3.37,1.15-3.37h1.2Z"/>
    <path class="cls-20" d="m670.73,70.25h-1.16v-7.24h1.16v2.84c.33-.43.88-.61,1.39-.61,1.2,0,1.78.86,1.78,1.93v3.08h-1.16v-2.88c0-.6-.27-1.08-1-1.08-.64,0-.99.48-1.01,1.1v2.86Z"/>
    <path class="cls-20" d="m679.67,68.86c-.26.85-1.03,1.54-2.2,1.54-1.32,0-2.49-.96-2.49-2.61,0-1.54,1.14-2.56,2.37-2.56,1.5,0,2.38.99,2.38,2.53,0,.19-.02.35-.03.37h-3.56c.03.74.61,1.27,1.33,1.27s1.06-.37,1.22-.85l.98.31Zm-1.11-1.58c-.02-.57-.4-1.08-1.2-1.08-.73,0-1.15.56-1.19,1.08h2.39Z"/>
    <path class="cls-20" d="m682.34,65.38h1.01v1.03h-1.01v2.26c0,.43.19.61.62.61.16,0,.35-.03.4-.04v.96c-.07.03-.29.11-.71.11-.9,0-1.46-.54-1.46-1.45v-2.45h-.9v-1.03h.25c.52,0,.75-.33.75-.76v-.73h1.05v1.49Z"/>
    <path class="cls-20" d="m685.62,70.25h-1.16v-7.24h1.16v2.84c.33-.43.88-.61,1.39-.61,1.2,0,1.78.86,1.78,1.93v3.08h-1.16v-2.88c0-.6-.27-1.08-1-1.08-.64,0-.99.48-1.01,1.1v2.86Z"/>
    <path class="cls-20" d="m690.1,67.84v-1.03h2.82v1.03h-2.82Z"/>
    <path class="cls-20" d="m555.01,80.86c-.26.85-1.03,1.54-2.2,1.54-1.32,0-2.49-.96-2.49-2.61,0-1.54,1.14-2.56,2.37-2.56,1.5,0,2.38.99,2.38,2.53,0,.19-.02.35-.03.37h-3.56c.03.74.61,1.27,1.33,1.27s1.06-.37,1.22-.85l.98.31Zm-1.11-1.58c-.02-.57-.4-1.08-1.2-1.08-.73,0-1.15.56-1.19,1.08h2.39Z"/>
    <path class="cls-20" d="m559.05,78.53c-.13-.02-.26-.03-.38-.03-.9,0-1.31.52-1.31,1.43v2.32h-1.16v-4.87h1.13v.78c.23-.53.77-.84,1.41-.84.14,0,.26.02.31.03v1.18Z"/>
    <path class="cls-20" d="m563.53,77.38h1.01v1.03h-1.01v2.26c0,.43.19.61.62.61.16,0,.35-.03.4-.04v.96c-.07.03-.29.11-.71.11-.9,0-1.46-.54-1.46-1.45v-2.45h-.9v-1.03h.25c.52,0,.75-.33.75-.76v-.73h1.05v1.49Z"/>
    <path class="cls-20" d="m566.81,82.25h-1.16v-7.24h1.16v2.84c.33-.43.88-.61,1.39-.61,1.2,0,1.78.86,1.78,1.93v3.08h-1.16v-2.88c0-.6-.27-1.08-1-1.08-.64,0-.99.48-1.01,1.1v2.86Z"/>
    <path class="cls-20" d="m571.94,74.91c.42,0,.76.34.76.76s-.34.75-.76.75-.75-.33-.75-.75.34-.76.75-.76Zm-.57,7.34v-4.87h1.15v4.87h-1.15Z"/>
    <path class="cls-20" d="m574.63,80.65c.04.44.37.83.99.83.48,0,.73-.26.73-.56,0-.26-.18-.46-.57-.54l-.72-.16c-.86-.19-1.31-.75-1.31-1.42,0-.85.78-1.57,1.79-1.57,1.36,0,1.8.88,1.88,1.36l-.98.28c-.04-.28-.25-.73-.9-.73-.41,0-.7.26-.7.56,0,.26.19.45.49.51l.74.15c.92.2,1.4.76,1.4,1.48s-.6,1.56-1.84,1.56c-1.41,0-1.95-.92-2.01-1.47l1.01-.28Z"/>
    <path class="cls-20" d="m581.7,80.65c.04.44.37.83.99.83.48,0,.73-.26.73-.56,0-.26-.18-.46-.57-.54l-.72-.16c-.86-.19-1.31-.75-1.31-1.42,0-.85.78-1.57,1.79-1.57,1.36,0,1.8.88,1.88,1.36l-.98.28c-.04-.28-.25-.73-.9-.73-.41,0-.7.26-.7.56,0,.26.19.45.49.51l.74.15c.92.2,1.4.76,1.4,1.48s-.6,1.56-1.84,1.56c-1.41,0-1.95-.92-2.01-1.47l1.01-.28Z"/>
    <path class="cls-20" d="m586.84,82.25h-1.16v-7.24h1.16v2.84c.33-.43.88-.61,1.39-.61,1.2,0,1.78.86,1.78,1.93v3.08h-1.16v-2.88c0-.6-.27-1.08-1-1.08-.64,0-.99.48-1.01,1.1v2.86Z"/>
    <path class="cls-20" d="m596.14,79.81c0,1.5-1.07,2.59-2.53,2.59s-2.52-1.09-2.52-2.59,1.07-2.58,2.52-2.58,2.53,1.09,2.53,2.58Zm-1.17,0c0-1.01-.64-1.53-1.36-1.53s-1.36.52-1.36,1.53.65,1.55,1.36,1.55,1.36-.53,1.36-1.55Z"/>
    <path class="cls-20" d="m599.06,82.39c-1.16,0-1.84-.86-1.84-1.94v-3.07h1.16v2.86c0,.6.28,1.11.98,1.11s1.02-.45,1.02-1.09v-2.88h1.16v3.98c0,.4.03.71.05.89h-1.11c-.02-.11-.04-.34-.04-.54-.24.44-.81.68-1.38.68Z"/>
    <path class="cls-20" d="m602.98,82.25v-7.24h1.16v7.24h-1.16Z"/>
    <path class="cls-20" d="m610.15,81.36c0,.44.04.81.05.89h-1.11c-.02-.11-.05-.43-.05-.63-.23.41-.74.75-1.43.75-1.4,0-2.34-1.1-2.34-2.57s.95-2.55,2.32-2.55c.85,0,1.28.39,1.43.7v-2.94h1.13v6.35Zm-2.41,0c.76,0,1.29-.63,1.29-1.56s-.52-1.51-1.28-1.51-1.32.59-1.32,1.52.52,1.55,1.31,1.55Z"/>
    <path class="cls-20" d="m614.01,82.25v-7.24h1.14v2.97c.22-.38.78-.73,1.53-.73,1.46,0,2.25,1.11,2.25,2.54s-.87,2.58-2.29,2.58c-.69,0-1.22-.3-1.5-.77v.65h-1.13Zm2.44-3.97c-.74,0-1.31.55-1.31,1.52s.57,1.54,1.31,1.54,1.31-.58,1.31-1.54-.54-1.52-1.31-1.52Z"/>
    <path class="cls-20" d="m624.45,80.86c-.26.85-1.03,1.54-2.2,1.54-1.32,0-2.49-.96-2.49-2.61,0-1.54,1.14-2.56,2.37-2.56,1.5,0,2.38.99,2.38,2.53,0,.19-.02.35-.03.37h-3.56c.03.74.61,1.27,1.33,1.27s1.06-.37,1.22-.85l.98.31Zm-1.11-1.58c-.02-.57-.4-1.08-1.2-1.08-.73,0-1.15.56-1.19,1.08h2.39Z"/>
    <path class="cls-20" d="m629.4,77.38h1.01v1.03h-1.01v2.26c0,.43.19.61.62.61.16,0,.35-.03.4-.04v.96c-.07.03-.29.11-.71.11-.9,0-1.46-.54-1.46-1.45v-2.45h-.9v-1.03h.25c.52,0,.75-.33.75-.76v-.73h1.05v1.49Z"/>
    <path class="cls-20" d="m634.37,78.53c-.13-.02-.26-.03-.38-.03-.9,0-1.31.52-1.31,1.43v2.32h-1.16v-4.87h1.13v.78c.23-.53.77-.84,1.41-.84.14,0,.26.02.31.03v1.18Z"/>
    <path class="cls-20" d="m635.86,74.91c.42,0,.76.34.76.76s-.34.75-.76.75-.75-.33-.75-.75.34-.76.75-.76Zm-.57,7.34v-4.87h1.15v4.87h-1.15Z"/>
    <path class="cls-20" d="m639.04,79.46l1.25-.19c.28-.04.36-.18.36-.35,0-.41-.28-.74-.92-.74s-.95.39-1,.88l-1.06-.24c.09-.84.85-1.59,2.05-1.59,1.5,0,2.07.85,2.07,1.82v2.42c0,.44.05.73.06.78h-1.08s-.05-.23-.05-.62c-.23.37-.71.77-1.5.77-1.02,0-1.65-.7-1.65-1.47,0-.87.64-1.35,1.47-1.47Zm1.61.77v-.22l-1.27.19c-.36.06-.65.26-.65.66,0,.33.25.63.71.63.65,0,1.21-.31,1.21-1.26Z"/>
    <path class="cls-20" d="m643.19,82.25v-7.24h1.16v7.24h-1.16Z"/>
    <path class="cls-20" d="m648.21,82.25v-7.24h1.14v2.97c.22-.38.78-.73,1.53-.73,1.46,0,2.25,1.11,2.25,2.54s-.87,2.58-2.29,2.58c-.69,0-1.22-.3-1.5-.77v.65h-1.13Zm2.44-3.97c-.74,0-1.31.55-1.31,1.52s.57,1.54,1.31,1.54,1.31-.58,1.31-1.54-.54-1.52-1.31-1.52Z"/>
    <path class="cls-20" d="m654.42,84.22l1.17-2.55-2.08-4.29h1.31l1.4,3.08,1.31-3.08h1.23l-3.1,6.84h-1.24Z"/>
    <path class="cls-20" d="m662.61,79.81c0,.98.63,1.53,1.36,1.53s1.11-.53,1.22-.9l1.02.37c-.23.76-.96,1.59-2.24,1.59-1.43,0-2.52-1.11-2.52-2.59s1.09-2.58,2.49-2.58c1.31,0,2.03.82,2.23,1.6l-1.04.38c-.11-.43-.44-.91-1.18-.91s-1.34.53-1.34,1.51Z"/>
    <path class="cls-20" d="m671.99,79.81c0,1.5-1.07,2.59-2.53,2.59s-2.52-1.09-2.52-2.59,1.07-2.58,2.52-2.58,2.53,1.09,2.53,2.58Zm-1.17,0c0-1.01-.64-1.53-1.36-1.53s-1.36.52-1.36,1.53.65,1.55,1.36,1.55,1.36-.53,1.36-1.55Z"/>
    <path class="cls-20" d="m674.91,82.39c-1.16,0-1.84-.86-1.84-1.94v-3.07h1.16v2.86c0,.6.28,1.11.98,1.11s1.02-.45,1.02-1.09v-2.88h1.16v3.98c0,.4.03.71.05.89h-1.11c-.02-.11-.04-.34-.04-.54-.24.44-.81.68-1.38.68Z"/>
    <path class="cls-20" d="m681.68,78.53c-.13-.02-.26-.03-.38-.03-.9,0-1.31.52-1.31,1.43v2.32h-1.16v-4.87h1.13v.78c.23-.53.77-.84,1.41-.84.14,0,.26.02.31.03v1.18Z"/>
    <path class="cls-20" d="m684.13,77.38h1.01v1.03h-1.01v2.26c0,.43.19.61.62.61.16,0,.35-.03.4-.04v.96c-.07.03-.29.11-.71.11-.9,0-1.46-.54-1.46-1.45v-2.45h-.9v-1.03h.25c.52,0,.75-.33.75-.76v-.73h1.05v1.49Z"/>
    <path class="cls-20" d="m555.37,91.81c0,1.5-1.07,2.59-2.53,2.59s-2.52-1.09-2.52-2.59,1.07-2.58,2.52-2.58,2.53,1.09,2.53,2.58Zm-1.17,0c0-1.01-.64-1.53-1.36-1.53s-1.36.52-1.36,1.53.65,1.55,1.36,1.55,1.36-.53,1.36-1.55Z"/>
    <path class="cls-20" d="m559.35,90.53c-.13-.02-.26-.03-.38-.03-.9,0-1.31.52-1.31,1.43v2.32h-1.16v-4.87h1.13v.78c.23-.53.77-.84,1.41-.84.14,0,.26.02.31.03v1.18Z"/>
    <path class="cls-20" d="m563.65,91.46l1.25-.19c.28-.04.36-.18.36-.35,0-.41-.28-.74-.92-.74s-.95.39-1,.88l-1.06-.24c.09-.84.85-1.59,2.05-1.59,1.5,0,2.07.85,2.07,1.82v2.42c0,.44.05.73.06.78h-1.08s-.05-.23-.05-.62c-.23.37-.71.77-1.5.77-1.02,0-1.65-.7-1.65-1.47,0-.87.64-1.35,1.47-1.47Zm1.61.77v-.22l-1.27.19c-.36.06-.65.26-.65.66,0,.33.25.63.71.63.65,0,1.21-.31,1.21-1.26Z"/>
    <path class="cls-20" d="m570.65,90.53c-.13-.02-.26-.03-.38-.03-.9,0-1.31.52-1.31,1.43v2.32h-1.16v-4.87h1.13v.78c.23-.53.77-.84,1.41-.84.14,0,.26.02.31.03v1.18Z"/>
    <path class="cls-20" d="m571.57,94.25v-7.24h1.14v2.97c.22-.38.78-.73,1.53-.73,1.46,0,2.25,1.11,2.25,2.54s-.87,2.58-2.29,2.58c-.69,0-1.22-.3-1.5-.77v.65h-1.13Zm2.44-3.97c-.74,0-1.31.55-1.31,1.52s.57,1.54,1.31,1.54,1.31-.58,1.31-1.54-.54-1.52-1.31-1.52Z"/>
    <path class="cls-20" d="m578.2,86.91c.42,0,.76.34.76.76s-.34.75-.76.75-.75-.33-.75-.75.34-.76.75-.76Zm-.57,7.34v-4.87h1.15v4.87h-1.15Z"/>
    <path class="cls-20" d="m581.75,89.38h1.01v1.03h-1.01v2.26c0,.43.19.61.62.61.16,0,.35-.03.4-.04v.96c-.07.03-.29.11-.71.11-.9,0-1.46-.54-1.46-1.45v-2.45h-.9v-1.03h.25c.52,0,.75-.33.75-.76v-.73h1.05v1.49Z"/>
    <path class="cls-20" d="m586.72,90.53c-.13-.02-.26-.03-.38-.03-.9,0-1.31.52-1.31,1.43v2.32h-1.16v-4.87h1.13v.78c.23-.53.77-.84,1.41-.84.14,0,.26.02.31.03v1.18Z"/>
    <path class="cls-20" d="m588.8,91.46l1.25-.19c.28-.04.36-.18.36-.35,0-.41-.28-.74-.92-.74s-.95.39-1,.88l-1.06-.24c.09-.84.85-1.59,2.05-1.59,1.5,0,2.07.85,2.07,1.82v2.42c0,.44.05.73.06.78h-1.08s-.05-.23-.05-.62c-.23.37-.71.77-1.5.77-1.02,0-1.65-.7-1.65-1.47,0-.87.64-1.35,1.47-1.47Zm1.61.77v-.22l-1.27.19c-.36.06-.65.26-.65.66,0,.33.25.63.71.63.65,0,1.21-.31,1.21-1.26Z"/>
    <path class="cls-20" d="m594.43,89.38h1.01v1.03h-1.01v2.26c0,.43.19.61.62.61.16,0,.35-.03.4-.04v.96c-.07.03-.29.11-.71.11-.9,0-1.46-.54-1.46-1.45v-2.45h-.9v-1.03h.25c.52,0,.75-.33.75-.76v-.73h1.05v1.49Z"/>
    <path class="cls-20" d="m597.12,86.91c.42,0,.76.34.76.76s-.34.75-.76.75-.75-.33-.75-.75.34-.76.75-.76Zm-.57,7.34v-4.87h1.15v4.87h-1.15Z"/>
    <path class="cls-20" d="m603.88,91.81c0,1.5-1.07,2.59-2.53,2.59s-2.52-1.09-2.52-2.59,1.07-2.58,2.52-2.58,2.53,1.09,2.53,2.58Zm-1.17,0c0-1.01-.64-1.53-1.36-1.53s-1.36.52-1.36,1.53.65,1.55,1.36,1.55,1.36-.53,1.36-1.55Z"/>
    <path class="cls-20" d="m606.17,94.25h-1.16v-4.87h1.13v.65c.32-.56.9-.79,1.44-.79,1.19,0,1.76.86,1.76,1.93v3.08h-1.16v-2.88c0-.6-.27-1.08-1-1.08-.66,0-1.01.51-1.01,1.15v2.81Z"/>
    <path class="cls-20" d="m611.33,92.68c.45,0,.82.37.82.82s-.37.81-.82.81-.81-.36-.81-.81.36-.82.81-.82Z"/>
  </g>
</svg>